<!-- svgstack.com --><svg width="100%" height="100%" viewBox="0 42 108 24" fill="none" xmlns="http://www.w3.org/2000/svg">
  <defs><clipPath id="clip0_2811_416"><rect width="108" height="108" rx="8" fill="white"/></clipPath></defs>
  <!-- White Background Card -->
  <rect x="0" y="42" width="108" height="24" fill="#FFFFFF" />
<g clip-path="url(#clip0_2811_416)"><path fill-rule="evenodd" clip-rule="evenodd" d="M56.7052 46.4421C56.7726 46.4646 56.8512 46.4983 56.9185 46.5319C57.0308 46.5881 57.1318 46.6666 57.2104 46.7677C57.3002 46.8575 57.3563 46.9585 57.4012 47.0707C57.4349 47.1942 57.4573 47.3177 57.4573 47.4524C57.4573 47.6657 57.4124 47.879 57.3226 48.0698C57.2328 48.2718 57.0981 48.4402 56.9297 48.5749C56.7501 48.7321 56.5256 48.8331 56.2899 48.9117C55.9981 48.9902 55.695 49.0239 55.3919 49.0239H53.45L54.4827 44.0849H56.2001C56.4246 44.0849 56.6603 44.1073 56.8736 44.1747C57.042 44.2196 57.2104 44.2981 57.3451 44.4104C57.4573 44.5114 57.5471 44.6349 57.6032 44.7808C57.6594 44.9267 57.6931 45.0727 57.6931 45.2298C57.6931 45.387 57.6706 45.5329 57.6145 45.6676C57.5583 45.8135 57.491 45.937 57.39 46.038C57.2777 46.1503 57.1542 46.2513 57.0195 46.3187C56.9185 46.3748 56.8063 46.4085 56.7052 46.4421ZM55.4705 44.9941L55.246 46.038H55.695C55.796 46.038 55.9083 46.0268 56.0205 45.9931C56.1103 45.9707 56.1889 45.9258 56.2675 45.8697C56.3236 45.8248 56.3797 45.7574 56.4134 45.6901C56.4471 45.6115 56.4583 45.5329 56.4583 45.4431C56.4583 45.3758 56.4583 45.3084 56.4358 45.2523C56.4134 45.1962 56.3797 45.1513 56.3348 45.1176C56.2899 45.0727 56.2226 45.0502 56.1552 45.0278C56.0654 45.0053 55.9644 44.9941 55.8746 44.9941H55.4705ZM55.0664 46.9473L54.8194 48.1259H55.347C55.4817 48.1259 55.6276 48.1035 55.7511 48.0698C55.8521 48.0361 55.9419 47.9912 56.0205 47.9239C56.0879 47.8677 56.144 47.8004 56.1777 47.7106C56.2113 47.632 56.2226 47.5422 56.2226 47.4524C56.2226 47.3065 56.1777 47.183 56.0654 47.082C55.9419 46.9697 55.7511 46.9473 55.5827 46.9473H55.0664ZM60.8136 47.9463H59.1972L58.636 49.0239H57.3114L60.1064 44.0849H61.4535L62.1494 49.0239H60.9483L60.8136 47.9463ZM60.5555 45.2747C60.5442 45.286 60.5442 45.3084 60.533 45.3196C60.5106 45.3645 60.4993 45.3982 60.4769 45.4431L59.6462 47.0146H60.7238L60.5555 45.4319C60.5555 45.3982 60.5555 45.3533 60.5555 45.3084C60.5555 45.2972 60.5555 45.286 60.5555 45.2747ZM64.3944 45.6788C64.3944 45.7125 64.3832 45.7462 64.3832 45.7911C64.372 45.8921 64.3495 45.9931 64.3271 46.0942L63.7097 49.0239H62.5984L63.6311 44.0849H64.7536L66.2017 47.082C66.2129 47.1044 66.2241 47.1381 66.2354 47.1605C66.2578 47.2054 66.269 47.2391 66.2803 47.2728C66.2915 47.284 66.2915 47.2952 66.3027 47.3065C66.3027 47.284 66.3027 47.2728 66.3027 47.2503C66.3139 47.2054 66.3139 47.1605 66.3252 47.1269C66.3364 47.082 66.3364 47.0483 66.3476 47.0146L66.965 44.0849H68.0763L67.0548 49.0239H65.9996L64.5067 45.9258C64.4842 45.8921 64.473 45.8584 64.4618 45.8248C64.4393 45.7911 64.4281 45.7574 64.4057 45.7125C64.4057 45.7013 64.3944 45.6901 64.3944 45.6788ZM70.804 46.5095C70.8377 46.5993 70.8938 46.6891 70.9387 46.7789C71.006 46.9248 71.0846 47.0707 71.1632 47.2167C71.253 47.385 71.3428 47.5422 71.4326 47.7106C71.5224 47.879 71.6122 48.0361 71.702 48.2045C71.7806 48.3504 71.8591 48.4963 71.9265 48.6423C71.9826 48.7433 72.0275 48.8555 72.0724 48.9566L72.1061 49.0239H70.6917L70.6805 48.9902C70.6468 48.9117 70.6132 48.8219 70.5683 48.7433C70.5121 48.6198 70.456 48.4963 70.3999 48.3729C70.3213 48.2382 70.254 48.0922 70.1866 47.9575C70.108 47.8116 70.0407 47.6769 69.9733 47.531C69.906 47.4075 69.8498 47.284 69.7937 47.1605C69.7488 47.082 69.7151 46.9922 69.6815 46.9136C69.6702 46.8799 69.659 46.8575 69.6478 46.8238L69.1988 49.0239H68.0089L69.0416 44.0849H70.2203L69.7825 46.1952C69.8049 46.184 69.8162 46.1615 69.8274 46.1391C69.8947 46.0605 69.9733 45.9707 70.0407 45.8921C70.1417 45.7799 70.2427 45.6564 70.3438 45.5329C70.4672 45.3982 70.5795 45.2635 70.703 45.1288C70.8264 44.9829 70.9387 44.8482 71.0622 44.7135C71.1632 44.59 71.2642 44.4777 71.3652 44.3543C71.4326 44.2757 71.4999 44.1971 71.5561 44.1073L71.5673 44.0849H73.0153L72.948 44.1747C72.8694 44.2757 72.7796 44.3655 72.6898 44.4665C72.5663 44.6012 72.4428 44.7359 72.3081 44.8818C72.1622 45.039 72.0163 45.1962 71.8591 45.3533C71.7132 45.5105 71.5561 45.6676 71.4101 45.8248C71.2867 45.9595 71.152 46.1054 71.0285 46.2401C70.9499 46.3299 70.8713 46.4197 70.804 46.5095ZM55.0776 55.2539H53.45L52.8999 56.3315H51.5754L54.3704 51.3924H55.7174L56.4022 56.3315H55.2123L55.0776 55.2539ZM54.8082 52.5823C54.8082 52.5935 54.797 52.616 54.797 52.6272C54.7745 52.6721 54.7521 52.7058 54.7296 52.7507L53.9102 54.3222H54.9878L54.8194 52.7394C54.8194 52.7058 54.8194 52.6609 54.8082 52.616C54.8082 52.6047 54.8082 52.5935 54.8082 52.5823ZM59.837 54.1426C59.9268 54.1875 60.0166 54.266 60.084 54.3558C60.1963 54.5018 60.2636 54.6926 60.3085 54.8722L60.6565 56.3315H59.3993L59.1299 55.0518C59.1074 54.8946 59.0513 54.7375 58.939 54.6252C58.838 54.513 58.7145 54.4793 58.5686 54.4793H58.4339L58.041 56.3315H56.8624L57.8951 51.3924H59.5564C59.7921 51.3924 60.0503 51.4149 60.2748 51.4934C60.4544 51.5608 60.6228 51.6506 60.7687 51.7741C60.8922 51.8975 60.982 52.0322 61.0381 52.1894C61.1055 52.3465 61.1279 52.5149 61.1279 52.6721C61.1279 52.8741 61.0943 53.0762 61.0157 53.2558C60.9371 53.4242 60.8361 53.5701 60.7014 53.7048C60.5779 53.8283 60.4208 53.9293 60.2524 54.0079C60.1177 54.064 59.983 54.1089 59.837 54.1426ZM58.8829 52.3129L58.6247 53.5589H58.9952C59.1299 53.5589 59.2646 53.5476 59.3993 53.5027C59.5003 53.4578 59.5901 53.4129 59.6687 53.3456C59.7472 53.2782 59.7921 53.2109 59.837 53.1211C59.8707 53.0313 59.882 52.9527 59.882 52.8517C59.882 52.7058 59.8483 52.5598 59.7472 52.4588C59.6238 52.3465 59.4442 52.3129 59.287 52.3129H58.8829ZM63.9118 52.3802L63.0923 56.3315H61.9137L62.7219 52.3802H61.3749L61.5882 51.3924H65.4608L65.2476 52.3802H63.9118ZM68.4018 54.3783H66.5609L66.1568 56.3315H64.9669L65.9996 51.3924H67.1783L66.7742 53.3231H68.6263L69.0304 51.3924H70.2091L69.1763 56.3315H67.9977L68.4018 54.3783ZM73.1276 55.2539H71.4999L70.9387 56.3315H69.6253L72.4092 51.3924H73.7562L74.4521 56.3315H73.2623L73.1276 55.2539ZM72.8582 52.5823C72.8469 52.5935 72.8469 52.616 72.8357 52.6272C72.8245 52.6721 72.802 52.7058 72.7796 52.7507L71.9489 54.3222H73.0266L72.8694 52.7394C72.8582 52.7058 72.8582 52.6609 72.8582 52.616C72.8582 52.6047 72.8582 52.5935 72.8582 52.5823ZM79.8065 55.3549L79.9861 54.4569H79.0208L79.2228 53.4915H81.3556L80.828 56.0284L80.8056 56.0396C80.7045 56.0845 80.6035 56.1406 80.4912 56.1743C80.3678 56.2192 80.2443 56.2641 80.1208 56.2978C79.9749 56.3427 79.8402 56.3651 79.6943 56.3876C79.5259 56.41 79.3575 56.4213 79.1891 56.4213C78.8748 56.4213 78.5605 56.3764 78.2575 56.2641C77.9993 56.1631 77.7635 56.0172 77.5615 55.8151C77.3707 55.6131 77.2247 55.3773 77.1349 55.1079C77.0339 54.8273 76.989 54.5242 76.989 54.2211C76.989 53.963 77.0115 53.716 77.0676 53.4691C77.1237 53.2333 77.2023 52.9976 77.3145 52.7843C77.4268 52.5711 77.5727 52.369 77.7411 52.1894C77.9095 52.0098 78.1115 51.8526 78.3248 51.7292C78.5605 51.5832 78.8187 51.4934 79.0769 51.4261C79.38 51.3475 79.6943 51.3138 79.9973 51.3138C80.1433 51.3138 80.2892 51.3251 80.4351 51.3363C80.5698 51.3587 80.6933 51.3812 80.828 51.4036C80.9403 51.4373 81.0525 51.4598 81.1535 51.4934C81.2546 51.5271 81.3444 51.5608 81.4342 51.5945L81.4678 51.6169L81.2321 52.7282L81.176 52.6833C81.0974 52.6272 81.0188 52.5823 80.9403 52.5486C80.8505 52.5037 80.7494 52.47 80.6484 52.4363C80.5474 52.4027 80.4351 52.3802 80.3117 52.3578C80.1994 52.3353 80.0759 52.3241 79.9524 52.3241C79.7055 52.3241 79.4585 52.369 79.2228 52.4588C79.0208 52.5486 78.8299 52.6721 78.684 52.8292C78.5269 52.9976 78.4146 53.1997 78.336 53.4129C78.2462 53.6599 78.2125 53.9068 78.2125 54.165C78.2125 54.3446 78.235 54.5354 78.2911 54.7038C78.336 54.8498 78.4146 54.9845 78.5156 55.0855C78.6167 55.1977 78.7401 55.2763 78.8748 55.3324C79.0208 55.3886 79.1779 55.411 79.3351 55.411C79.4361 55.411 79.5371 55.411 79.6269 55.3998C79.683 55.3886 79.7392 55.3661 79.8065 55.3549ZM84.5547 54.1426C84.6445 54.1875 84.7231 54.266 84.7905 54.3558C84.9027 54.5018 84.9701 54.6926 85.015 54.8722L85.3629 56.3315H84.117L83.8476 55.0518C83.8139 54.8946 83.7578 54.7375 83.6455 54.6252C83.5557 54.513 83.421 54.4793 83.2751 54.4793H83.1404L82.7587 56.3315H81.5689L82.6016 51.3924H84.2629C84.4986 51.3924 84.7568 51.4149 84.9813 51.4934C85.1609 51.5608 85.3405 51.6506 85.4752 51.7741C85.5987 51.8975 85.6885 52.0322 85.7558 52.1894C85.812 52.3465 85.8344 52.5149 85.8344 52.6721C85.8344 52.8741 85.8007 53.0762 85.7222 53.2558C85.6548 53.4242 85.5425 53.5701 85.4191 53.7048C85.2844 53.8283 85.1272 53.9293 84.9588 54.0079C84.8241 54.064 84.6894 54.1089 84.5547 54.1426ZM83.5894 52.3129L83.3312 53.5589H83.7016C83.8363 53.5589 83.9823 53.5476 84.1057 53.5027C84.2068 53.4578 84.3078 53.4129 84.3864 53.3456C84.4537 53.2782 84.5098 53.2109 84.5435 53.1211C84.5772 53.0313 84.5996 52.9527 84.5996 52.8517C84.5996 52.7058 84.566 52.5598 84.4537 52.4588C84.3302 52.3465 84.1506 52.3129 83.9935 52.3129H83.5894ZM88.8876 55.2539H87.26L86.71 56.3315H85.3854L88.1692 51.3924H89.5275L90.2122 56.3315H89.0223L88.8876 55.2539ZM88.6182 52.5823C88.6182 52.5935 88.607 52.616 88.5958 52.6272C88.5846 52.6721 88.5621 52.7058 88.5396 52.7507L87.709 54.3222H88.7978L88.6295 52.7394C88.6295 52.7058 88.6182 52.6609 88.6182 52.616C88.6182 52.6047 88.6182 52.5935 88.6182 52.5823ZM94.1073 54.3783H92.2552L91.8511 56.3315H90.6724L91.6939 51.3924H92.8838L92.4797 53.3231H94.3206L94.7247 51.3924H95.9033L94.8818 56.3315H93.7032L94.1073 54.3783ZM98.8219 55.2539H97.1942L96.6442 56.3315H95.3196L98.1147 51.3924H99.4617L100.158 56.3315H98.9566L98.8219 55.2539ZM98.5637 52.5823C98.5524 52.5935 98.5412 52.616 98.5412 52.6272C98.5188 52.6721 98.4963 52.7058 98.4739 52.7507L97.6544 54.3222H98.7321L98.5637 52.7394C98.5637 52.7058 98.5637 52.6609 98.5637 52.616C98.5637 52.6047 98.5637 52.5935 98.5637 52.5823ZM51.4519 63.3023H50.2733L51.2947 58.3632H52.4734L51.4519 63.3023ZM54.202 59.9572C54.202 59.9909 54.202 60.0245 54.1908 60.0694C54.1796 60.1705 54.1571 60.2715 54.1347 60.3725L53.5173 63.3023H52.4173L53.4387 58.3632H54.5725L56.0093 61.3491C56.0205 61.3828 56.0317 61.4164 56.043 61.4389C56.0654 61.4726 56.0766 61.5175 56.0991 61.5511C56.0991 61.5624 56.1103 61.5736 56.1103 61.5736C56.1103 61.5624 56.1215 61.5399 56.1215 61.5287C56.1215 61.4838 56.1328 61.4389 56.144 61.4052C56.144 61.3603 56.1552 61.3266 56.1664 61.293L56.7726 58.3632H57.8839L56.8624 63.3023H55.8185L54.3143 60.2041C54.3031 60.1705 54.2806 60.1368 54.2694 60.1031C54.2582 60.0694 54.2357 60.0358 54.2245 59.9909C54.2133 59.9796 54.2133 59.9684 54.202 59.9572ZM60.7463 59.351L59.9269 63.3023H58.737L59.5564 59.351H58.2094L58.4115 58.3632H62.2841L62.0821 59.351H60.7463ZM63.7995 59.351L63.5975 60.3388H65.1465L64.9333 61.3379H63.3954L63.1821 62.3145H64.9557L64.7536 63.3023H61.8014L62.8342 58.3632H65.6629L65.4608 59.351H63.7995ZM68.3681 61.1134C68.4579 61.1583 68.5365 61.2368 68.6039 61.3266C68.7273 61.4726 68.7947 61.6634 68.8396 61.843L69.1763 63.3023H67.9304L67.6609 62.0226C67.6385 61.8654 67.5824 61.7083 67.4701 61.5848C67.3691 61.4838 67.2344 61.4501 67.0997 61.4501H66.9538L66.5721 63.3023H65.3935L66.415 58.3632H68.0875C68.3232 58.3632 68.5702 58.3857 68.8059 58.4642C68.9855 58.5316 69.1539 58.6214 69.2886 58.7449C69.4233 58.8683 69.5131 59.003 69.5692 59.1602C69.6253 59.3173 69.659 59.4857 69.659 59.6429C69.659 59.8449 69.6253 60.0358 69.5468 60.2266C69.4682 60.395 69.3672 60.5409 69.2325 60.6644C69.0978 60.7991 68.9518 60.9001 68.7835 60.9787C68.6488 61.0348 68.5141 61.0797 68.3681 61.1134ZM67.414 59.2837L67.1446 60.5297H67.515C67.6497 60.5297 67.7957 60.5184 67.9304 60.4623C68.0314 60.4286 68.1212 60.3837 68.1998 60.3164C68.2671 60.249 68.3232 60.1817 68.3681 60.0919C68.4018 60.0021 68.413 59.9123 68.413 59.8225C68.413 59.6765 68.3794 59.5306 68.2671 59.4296C68.1549 59.3061 67.9753 59.2837 67.8181 59.2837H67.414ZM71.5112 59.9572C71.5112 59.9909 71.5112 60.0245 71.4999 60.0694C71.4887 60.1705 71.4663 60.2715 71.4438 60.3725L70.8264 63.3023H69.7264L70.7479 58.3632H71.8816L73.3184 61.3491C73.3296 61.3828 73.3409 61.4164 73.3633 61.4389C73.3745 61.4726 73.397 61.5175 73.4082 61.5511C73.4082 61.5624 73.4194 61.5736 73.4194 61.5736C73.4194 61.5624 73.4307 61.5399 73.4307 61.5287C73.4307 61.4838 73.4419 61.4389 73.4531 61.4052C73.4531 61.3603 73.4643 61.3266 73.4756 61.293L74.0817 58.3632H75.193L74.1715 63.3023H73.1276L71.6234 60.2041C71.6122 60.1705 71.5897 60.1368 71.5785 60.1031C71.5673 60.0694 71.5448 60.0358 71.5336 59.9909C71.5224 59.9796 71.5224 59.9684 71.5112 59.9572ZM78.1115 62.2246H76.4951L75.9339 63.3023H74.6093L77.4044 58.3632H78.7514L79.4473 63.3023H78.2462L78.1115 62.2246ZM77.8533 59.5531C77.8421 59.5643 77.8421 59.5867 77.8309 59.598C77.8084 59.6429 77.786 59.6765 77.7748 59.7214L76.9441 61.293H78.0217L77.8533 59.7102C77.8533 59.6653 77.8533 59.6316 77.8533 59.5867C77.8533 59.5755 77.8533 59.5643 77.8533 59.5531ZM83.2975 59.5755C83.2302 59.5306 83.1516 59.4969 83.073 59.452C82.9945 59.4184 82.9046 59.3735 82.8148 59.351C82.7251 59.3173 82.624 59.2949 82.5342 59.2724C82.4332 59.25 82.3209 59.2388 82.2199 59.2388C82.1189 59.2388 82.0066 59.25 81.9168 59.2949C81.8495 59.3173 81.7821 59.3622 81.726 59.4071C81.6923 59.452 81.6587 59.4969 81.6362 59.5531C81.6138 59.6092 81.6025 59.6541 81.6025 59.7102C81.6025 59.7663 81.6138 59.8337 81.6362 59.8898C81.6587 59.9572 81.6923 60.0133 81.7372 60.0582C81.7934 60.1143 81.8495 60.1705 81.9168 60.2266C82.0179 60.2939 82.1077 60.3613 82.2087 60.4174C82.3546 60.5072 82.4893 60.6082 82.6128 60.7093C82.725 60.7991 82.8261 60.9113 82.9159 61.0236C83.0057 61.1358 83.073 61.2593 83.1179 61.394C83.1628 61.5399 83.174 61.6858 83.174 61.843C83.174 61.944 83.1628 62.0563 83.1404 62.1573C83.1179 62.2696 83.0843 62.393 83.0281 62.5053C82.9832 62.6175 82.9046 62.7298 82.8148 62.8308C82.7138 62.9431 82.6016 63.0441 82.4669 63.1227C82.3097 63.2125 82.1413 63.2686 81.973 63.3135C81.7485 63.3696 81.524 63.3921 81.2995 63.3921C81.1535 63.3921 81.0188 63.3808 80.8729 63.3584C80.7494 63.3359 80.6147 63.3135 80.4912 63.2798C80.379 63.2461 80.2667 63.2125 80.1545 63.1676C80.0535 63.1339 79.9637 63.089 79.8739 63.0441L79.8402 63.0216L80.0422 61.944L80.1096 62.0001C80.1882 62.0563 80.278 62.1124 80.3678 62.1685C80.4576 62.2246 80.5586 62.2696 80.6596 62.3032C80.7607 62.3481 80.8729 62.3706 80.9852 62.393C81.0862 62.4155 81.1984 62.4267 81.3107 62.4267C81.4117 62.4267 81.524 62.4155 81.6138 62.393C81.6811 62.3706 81.7597 62.3369 81.8158 62.2808C81.8607 62.2359 81.8944 62.191 81.9168 62.1348C81.9393 62.0675 81.9505 62.0001 81.9505 61.944C81.9505 61.8767 81.9393 61.8205 81.9168 61.7532C81.8944 61.6971 81.8607 61.6522 81.8158 61.6073C81.7597 61.5399 81.6811 61.4838 81.6138 61.4389C81.5127 61.3715 81.4005 61.3042 81.2995 61.2368C81.1648 61.1695 81.0413 61.0797 80.929 60.9899C80.8168 60.9001 80.7158 60.7991 80.626 60.6756C80.5474 60.5633 80.48 60.4399 80.4351 60.3052C80.3902 60.148 80.3678 59.9909 80.3678 59.8337C80.3678 59.6429 80.4015 59.452 80.48 59.2724C80.5474 59.0816 80.6596 58.9132 80.8056 58.7673C80.9739 58.6102 81.176 58.4979 81.378 58.4193C81.6474 58.3183 81.9281 58.2846 82.2087 58.2846C82.3434 58.2846 82.4669 58.2959 82.5903 58.3071C82.7138 58.3183 82.8261 58.3408 82.9495 58.3632C83.0506 58.3857 83.1516 58.4193 83.2639 58.453C83.3537 58.4755 83.4435 58.5091 83.5333 58.554L83.5669 58.5653L83.3649 59.6204L83.2975 59.5755ZM84.7231 63.3023H83.5333L84.5547 58.3632H85.7446L84.7231 63.3023ZM90.6275 60.4174C90.6275 60.6082 90.6163 60.8103 90.5826 61.0011C90.549 61.2032 90.4928 61.394 90.4367 61.5848C90.3694 61.7644 90.2795 61.944 90.1785 62.1124C90.0887 62.292 89.9652 62.4492 89.8305 62.5839C89.7183 62.7073 89.5948 62.8196 89.4713 62.9206C89.3366 63.0216 89.1907 63.1002 89.0336 63.1676C88.8652 63.2461 88.6968 63.291 88.5284 63.3359C88.3264 63.3696 88.1356 63.3921 87.9335 63.3921C87.6416 63.3921 87.3498 63.3472 87.0804 63.2237C86.8334 63.1227 86.6202 62.9767 86.4406 62.7747C86.2497 62.5839 86.1263 62.3481 86.0365 62.1012C85.9354 61.8318 85.9017 61.5399 85.9017 61.2593C85.9017 61.046 85.913 60.8327 85.9579 60.6307C85.9916 60.4286 86.0365 60.2266 86.115 60.0358C86.1936 59.8449 86.2834 59.6541 86.3844 59.4857C86.4967 59.3173 86.6202 59.149 86.7661 59.0143C86.8783 58.902 87.0018 58.801 87.1365 58.7112C87.26 58.6214 87.4059 58.5428 87.5518 58.4867C87.709 58.4193 87.8774 58.3632 88.0457 58.3295C88.2253 58.2959 88.405 58.2846 88.5958 58.2846C88.8764 58.2846 89.157 58.3295 89.4152 58.4306C89.6622 58.5204 89.8867 58.6663 90.0663 58.8459C90.2571 59.0479 90.3918 59.2724 90.4816 59.5194C90.5939 59.8112 90.6275 60.1143 90.6275 60.4174ZM89.3928 60.4511C89.3928 60.2939 89.3815 60.1256 89.3366 59.9796C89.2917 59.8449 89.2356 59.7327 89.1458 59.6316C89.0672 59.5306 88.9774 59.4633 88.8652 59.4184C88.7417 59.3622 88.607 59.3398 88.4723 59.3398C88.3039 59.3398 88.1468 59.3735 87.9896 59.452C87.8325 59.5418 87.6978 59.6541 87.5855 59.7888C87.5069 59.8786 87.4508 59.9796 87.3947 60.0919C87.3386 60.2041 87.2937 60.3276 87.2488 60.4511C87.2151 60.5858 87.1814 60.7093 87.159 60.844C87.1477 60.9787 87.1365 61.1134 87.1365 61.2368C87.1365 61.4052 87.1477 61.5624 87.1926 61.7195C87.2375 61.843 87.2937 61.9552 87.3835 62.0563C87.462 62.1573 87.5518 62.2246 87.6641 62.2696C87.7876 62.3257 87.911 62.3481 88.0457 62.3481C88.2141 62.3481 88.3825 62.3032 88.5396 62.2246C88.6968 62.1461 88.8315 62.0226 88.955 61.8767C89.0223 61.7869 89.0897 61.6858 89.1458 61.5736C89.2019 61.4613 89.2468 61.3379 89.2805 61.2144C89.3254 61.0797 89.3479 60.9562 89.3703 60.8215C89.3815 60.698 89.3928 60.5746 89.3928 60.4511ZM92.6144 59.9572C92.6031 59.9909 92.6031 60.0245 92.6031 60.0694C92.5807 60.1705 92.5695 60.2715 92.547 60.3725L91.9296 63.3023H90.8184L91.8398 58.3632H92.9736L94.4104 61.3491C94.4216 61.3828 94.4441 61.4164 94.4553 61.4389C94.4777 61.4726 94.489 61.5175 94.5002 61.5511C94.5114 61.5624 94.5114 61.5736 94.5226 61.5736C94.5226 61.5624 94.5226 61.5399 94.5226 61.5287C94.5339 61.4838 94.5339 61.4389 94.5451 61.4052C94.5563 61.3603 94.5563 61.3266 94.5675 61.293L95.1737 58.3632H96.2962L95.2635 63.3023H94.2196L92.7266 60.2041C92.7042 60.1705 92.6929 60.1368 92.6705 60.1031C92.6593 60.0694 92.648 60.0358 92.6256 59.9909C92.6256 59.9796 92.6144 59.9684 92.6144 59.9572ZM99.2147 62.2246H97.5871L97.0258 63.3023H95.7125L98.4963 58.3632H99.8433L100.539 63.3023H99.3494L99.2147 62.2246ZM98.9453 59.5531C98.9453 59.5643 98.9341 59.5867 98.9229 59.598C98.9117 59.6429 98.8892 59.6765 98.8668 59.7214L98.0361 61.293H99.1137L98.9566 59.7102C98.9453 59.6653 98.9453 59.6316 98.9453 59.5867C98.9453 59.5755 98.9453 59.5643 98.9453 59.5531ZM102.391 62.3032H104.131L103.929 63.3023H101L102.021 58.3632H103.211L102.391 62.3032Z" fill="black"/><path fill-rule="evenodd" clip-rule="evenodd" d="M47.0067 44.3431H51.8784L47.467 63.3584C43.9086 63.3584 40.3839 63.3472 36.8144 63.3472C37.0164 62.4829 37.2185 61.6073 37.4317 60.743C35.2877 63.6166 31.8641 64.4248 29.0241 63.3135C25.6229 63.3135 22.2217 63.3135 18.8205 63.3135L17.002 54.4457L10.9629 63.3584L3.86865 63.3809L8.20154 57.0499H11.6926L13.511 54.3222H10.0649L17.002 44.2196H20.5155L23.9953 60.3164H25.477C25.3311 60.0807 25.1964 59.845 25.0729 59.5868C23.1085 53.6712 27.1159 45.8024 34.2101 44.287C40.3166 43.0522 43.9872 45.8697 43.8188 51.4374C41.9442 51.4261 40.0584 51.4149 38.1726 51.4037C38.6777 48.328 34.8275 47.5984 32.5488 50.2812C31.5161 51.5496 30.8201 52.9752 30.4946 54.311H28.0139C27.7669 55.2876 27.8006 56.1744 28.0139 57.0162H30.416C30.6069 57.8245 31.0334 58.4867 31.7069 58.8796C32.9754 59.5082 35.6245 59.2613 36.7807 57.252C35.849 57.252 34.9061 57.252 33.9744 57.252C34.2438 56.2529 34.5132 55.2427 34.7826 54.2436C37.6001 54.2436 40.4064 54.2436 43.2127 54.2436L41.7085 60.3838H43.2912L47.0067 44.3431Z" fill="#A28548"/></g></svg> 