<?xml version="1.0" encoding="UTF-8" standalone="no"?>
<svg
   version="1.1"
   width="100%"
   height="100%"
   viewBox="50 75 740 445"
   id="svg12"
   sodipodi:docname="ATM Bersama.cdr"
   xmlns:inkscape="http://www.inkscape.org/namespaces/inkscape"
   xmlns:sodipodi="http://sodipodi.sourceforge.net/DTD/sodipodi-0.dtd"
   xmlns="http://www.w3.org/2000/svg"
   xmlns:svg="http://www.w3.org/2000/svg">
  <!-- White Background Card -->
  <rect x="50" y="75" width="740" height="445" rx="20" fill="#FFFFFF" />

  
  
  <path
     d="  M343.8478,202.5905 L383.7849,202.5905 L383.7849,304.9205 C383.7849,319.6074 388.7342,328.9382 399.9624,335.1651 C403.7695,337.2752 410.3386,338.3593 415.2363,338.3593 C429.0392,338.3593 442.7579,323.7305 451.9790,315.2000 C453.3017,313.9805 454.0569,313.2769 455.2959,312.0250 C458.6384,308.6695 461.7423,305.1848 465.3818,302.1390 L482.5013,285.8131 C483.7016,284.6128 484.5467,283.7739 485.7405,282.5609 C487.2119,281.0768 488.0701,280.6443 489.4960,279.3281 L523.4254,246.3666 C524.7741,245.0114 525.5549,244.6371 526.8712,243.3208 L527.3617,242.8111 C527.4328,242.7400 527.5361,242.6367 527.6134,242.5595 C527.8974,242.2884 528.3166,241.9140 528.6588,241.6043 C529.5299,240.8105 529.6075,240.6429 530.5559,240.0040 C530.5043,242.2624 530.0591,241.9851 530.0591,244.4952 L530.0591,304.3975 C530.0591,318.1614 541.7003,333.8486 556.0191,333.8486 L562.5106,333.8486 C571.4092,333.8486 579.6560,326.4405 585.3475,320.7428 C587.4705,318.6133 589.3611,316.5162 591.6455,314.5610 L593.2780,313.1993 C597.6659,309.4503 601.3312,304.9461 605.5902,301.0484 L610.3139,296.7832 C613.8564,293.2082 617.2765,289.3816 621.1418,286.1488 L635.0154,273.0687 C637.2157,270.8619 639.0615,269.0356 641.2553,266.8288 C643.3654,264.6993 645.3852,263.2217 647.5017,261.0922 C651.5153,257.0461 655.4582,252.6195 659.7299,248.8640 C661.8659,246.9861 663.9243,244.6114 666.3377,242.9919 C666.3377,261.9635 666.3377,280.9284 666.3377,299.9000 C666.3377,311.9153 668.9318,322.6918 679.6499,329.0155 C682.1022,330.4609 686.5609,333.0742 689.7940,333.3453 L690.1684,312.1864 C689.8135,300.8422 690.2911,287.0459 690.2911,275.4437 C690.2911,258.6402 690.2330,241.8240 690.2911,225.0274 C690.3105,220.4715 689.7813,217.7742 689.7878,213.0508 L689.7878,194.5697 C689.7878,192.6275 690.7300,189.8399 689.5943,189.3623 C688.4908,188.8977 687.1810,190.9304 686.4193,191.7113 C685.2320,192.9246 684.3801,193.7567 683.1736,194.9570 L644.3660,231.5192 C641.9397,233.3711 640.2942,235.7136 637.9517,237.5850 C635.2930,239.7016 633.9381,241.3857 631.5053,243.6185 C631.1118,243.9798 631.1505,243.9347 630.7050,244.3155 L629.6144,245.2191 C629.5047,245.3158 629.1820,245.5804 629.0723,245.6772 L625.0197,249.6135 C610.2425,264.3972 594.3556,277.7225 579.6043,292.5510 L569.1700,302.0818 C566.4596,304.3983 562.9687,309.7801 558.9937,308.4636 C555.3931,307.2698 554.5155,304.5532 554.5155,299.9071 C554.5155,288.3500 555.0577,188.9239 554.5155,186.5944 C552.0571,188.2398 550.1081,190.9307 547.9077,192.9635 L540.7516,199.2810 C538.8802,200.7264 537.8737,202.2365 536.1250,203.6368 L517.5793,220.5370 C513.4495,223.6860 483.4564,251.8012 478.5263,256.3570 C470.1763,264.0748 460.9358,271.5020 452.8050,279.5552 C450.9722,281.3685 450.1592,282.2331 448.1203,283.8594 C446.3134,285.2984 445.4615,286.5568 443.4161,288.1376 L415.3396,313.4781 C410.6032,316.8787 406.7701,312.2521 406.7701,306.8960 L406.7572,206.0501 C406.7377,200.8297 407.4153,198.0550 407.1315,190.8729 C406.5572,176.4379 410.1192,179.8061 395.7679,179.6256 C392.8384,179.5869 391.6637,179.0834 388.3082,179.1028 L318.9138,179.1020 C318.9138,182.4575 320.6625,185.9032 321.9274,188.0779 L327.0124,194.9697 C327.8319,195.7957 329.4582,196.9249 330.3874,197.5830 C334.0332,200.1642 338.8666,202.5710 343.8675,202.5710 L343.8478,202.5905 Z"
     fill="#0377c0" fill-rule="evenodd"
     id="path1" />
  <path
     d="  M442.1833,243.0244 L442.1833,202.5905 C457.3475,202.5905 464.8202,200.5837 474.5124,190.9947 C477.9065,187.6392 481.0880,184.2451 484.8435,181.3607 C486.3084,180.2315 486.0889,181.0704 486.6051,179.1344 C483.3724,179.1344 482.1204,179.6571 478.6230,179.6377 L429.2197,179.1601 C424.0704,179.6117 424.2834,178.9730 419.9340,179.4312 C419.3467,179.4893 418.8370,179.5409 417.7142,179.6312 L417.7142,296.4348 C419.1081,296.0670 425.2317,290.2014 426.5739,288.8267 L488.7217,232.1702 C490.2963,230.5764 491.0447,229.7569 492.8775,228.3371 C497.5430,224.7365 503.3054,218.4641 508.2871,214.2956 L550.6116,175.7527 C553.7285,173.0036 558.5745,166.1186 563.2979,169.8095 C564.1560,170.4806 564.6145,171.1260 565.0080,172.0939 C566.2018,175.0299 565.4661,285.7294 565.4661,289.9430 C567.3891,289.4268 576.0683,280.6057 578.0621,278.5794 L641.2102,219.4323 C644.1076,216.5284 646.7660,214.3927 649.6958,211.4437 L683.4768,179.8309 C686.2258,177.7078 693.4787,168.2995 697.5505,170.7774 C698.9508,171.6293 700.7381,174.0683 700.7381,176.1267 L700.7381,226.0463 C700.7381,239.4296 700.2414,251.4835 700.2414,264.4860 C700.2414,271.4551 700.7381,276.5723 700.7381,283.4576 L700.7381,322.3945 C700.7381,324.2915 700.4735,330.4993 700.7576,331.9061 C701.1449,333.8161 701.8482,333.3259 703.5258,332.7515 C708.1202,331.1707 712.6244,329.1636 716.0507,325.7178 C719.1416,322.6139 724.7039,313.6510 724.7039,309.4114 L724.7039,171.6423 C724.7039,165.4410 720.4773,158.4978 716.4183,154.4648 L713.3465,151.5479 C707.0226,145.8434 696.7304,144.4496 688.7869,146.2048 C681.1145,147.8953 675.2100,153.4450 669.9185,158.7813 C667.1695,161.5495 664.7497,164.0790 661.9426,166.7764 L613.2685,212.9470 C610.4292,215.4508 608.0932,218.3352 605.2864,220.9356 L597.0462,228.6660 C594.9037,230.8148 591.4127,235.3384 588.4381,236.0287 L588.4511,173.6228 C588.4832,166.7183 586.0699,162.1174 583.1595,157.9489 C578.7716,151.6703 571.8927,146.5272 563.9171,145.7399 C554.5863,144.8236 546.2490,145.5399 539.0864,151.2314 C529.9686,158.4716 517.5917,172.2871 509.6934,179.2433 C508.4674,180.3209 507.9317,180.5082 506.6927,181.7341 C503.3888,185.0059 499.5882,189.4325 496.0970,192.1039 C491.8123,195.3756 488.6117,199.8279 484.3915,203.3577 L461.4449,225.3362 C457.9927,228.4596 445.4547,242.1459 442.1895,243.0173 L442.1833,243.0244 Z"
     fill="#0377c0" fill-rule="evenodd"
     id="path2" />
  <path
     d="  M311.8931,307.4240 C311.6349,310.6506 311.0219,313.6640 309.6538,316.8000 C303.9817,329.8350 289.7919,334.6359 288.7851,332.9129 C288.0237,331.6028 288.5399,209.3142 288.5399,193.3561 C288.5399,189.4522 289.4305,177.7916 287.4945,174.9397 C282.9646,168.2608 277.2536,176.2754 274.9179,178.2371 C269.6975,182.5994 264.9611,187.6260 259.9667,192.2399 L210.0728,239.1396 L160.1338,286.0845 C158.9916,287.1429 158.5205,287.2654 157.3783,288.3173 L150.1510,295.5705 C149.0088,296.6224 148.5377,296.7448 147.3956,297.8033 L134.9157,309.7863 C133.8511,310.7220 133.4960,310.7866 132.4184,311.7802 L124.9265,318.7623 C123.9651,319.7752 123.7778,320.2337 122.8165,321.1434 C120.6418,319.5561 117.8220,312.1415 117.8220,308.1665 L117.8220,298.9195 C117.8415,298.4419 118.0155,299.4938 119.2610,296.1254 C119.8093,294.6348 120.1837,293.9507 120.8161,292.6923 C124.9719,284.4131 129.0307,282.2385 134.6706,276.5924 L190.3268,222.9300 C192.1531,221.0910 193.5791,220.2069 195.3278,218.4453 L210.0725,204.1197 L218.1127,196.3051 C218.1903,196.2405 218.2998,196.1438 218.3838,196.0792 L240.7431,174.5072 C242.5821,172.6488 244.0921,171.6874 245.9892,169.7709 C249.4223,166.3056 252.5259,163.2404 255.9719,159.7881 L261.2180,155.0518 C267.9612,148.5086 273.0719,145.4369 283.5514,145.4369 C298.4188,145.4369 309.1759,156.2005 311.6538,168.7449 C311.7506,169.2225 311.8282,169.7838 311.8925,170.4228 L311.8925,256.0590 C311.8343,262.3184 311.8538,269.8168 311.8925,276.6180 C311.9376,283.9099 312.0022,290.3949 312.0022,293.6923 C312.0022,299.0416 312.2217,303.3974 311.8925,307.4240 L311.8931,307.4240 Z"
     fill="#0377c0" fill-rule="evenodd"
     id="path3" />
  <path
     d="  M223.5467,369.3075 C223.5467,351.7297 205.7238,343.8508 191.1015,343.8508 L164.1477,343.8508 C160.5276,343.8508 153.6682,346.7030 150.4416,349.1099 C141.7689,355.6855 140.6011,365.3776 137.9810,374.5860 C133.6963,389.6470 130.0180,405.3469 125.7720,419.7822 L121.7132,434.6948 C121.0486,437.1922 120.4678,439.9152 119.7772,442.2447 C118.9447,445.0519 117.7187,447.9879 117.7187,450.1690 L167.6389,450.1684 C177.9957,450.1684 186.3394,449.2133 193.6764,446.2581 C204.6140,441.8506 213.8740,434.7140 215.0162,422.1952 C215.7841,413.8774 213.9967,406.0566 206.9887,401.3524 C204.0978,399.4164 198.5030,396.5255 197.5868,395.2609 C200.2517,395.2609 205.9303,393.5574 207.9049,392.6217 C217.6360,388.0272 223.5467,380.7870 223.5467,369.3075 Z Z M193.7794,386.1947 C189.9076,387.3821 186.3521,388.5437 181.9060,388.8986 C179.2411,388.8986 176.5824,388.9181 173.8980,388.9372 C164.9350,389.2083 164.1412,388.9567 162.1860,395.2612 C161.4182,397.7586 160.6243,400.2751 159.7338,403.1209 L163.2250,403.1206 C166.6126,403.0560 169.9876,403.0174 173.3561,402.9722 C176.3954,402.9076 178.9119,402.8885 182.3836,402.9722 C186.3135,404.4307 190.5787,405.8631 193.0566,409.8962 C196.9027,416.2007 197.1349,427.3900 186.3197,432.2942 C183.3255,433.6493 179.8538,433.9591 176.5886,434.7464 C164.8571,434.7464 153.1065,434.7659 141.3751,434.7851 C141.2073,433.9977 140.7297,433.1010 140.9170,432.4169 C144.7887,417.9173 148.7572,403.4433 152.6871,388.9502 C154.9520,380.5678 157.1977,372.1662 159.4692,363.7646 C159.8240,363.0549 160.1789,362.3322 160.5276,361.6221 C160.7146,361.2864 160.9211,360.9575 161.1084,360.6218 C163.5026,359.9958 164.8318,359.7247 167.3483,359.4796 C167.9097,359.4150 168.5551,359.3764 169.0970,359.3764 C172.4269,359.3118 175.6918,359.2926 178.9957,359.2280 L179.1830,359.2280 C179.8927,359.2280 180.3252,359.2926 181.0995,359.2926 C181.8482,359.3121 182.3063,359.3572 183.0161,359.3312 C183.8872,359.3507 184.7648,359.3699 185.6554,359.3958 C187.2362,359.4796 188.8173,359.5637 190.4177,359.6669 C191.3147,359.8153 192.2050,359.9572 193.1215,360.1059 C194.8251,360.6481 196.5546,361.1643 198.2582,361.7062 C198.6517,361.9127 199.0455,362.1451 199.4199,362.3516 L199.3552,362.2679 C199.5617,362.4549 199.7942,362.6227 200.0199,362.8100 C200.4780,363.2682 200.9556,363.7263 201.4332,364.1844 C207.4860,372.3344 202.3883,383.5882 193.7800,386.1888 L193.7794,386.1947 Z"
     fill="#0377c0" fill-rule="evenodd"
     id="path4" />
  <path
     d="  M130.7992,329.3577 C147.6153,338.2563 159.4630,333.4681 171.8525,320.9947 L202.4520,291.6923 C207.1241,287.7884 218.6552,275.6956 222.8691,272.1722 L223.4175,271.7206 C227.6828,268.1586 233.6389,261.2476 237.4977,257.8470 L251.3843,244.7798 C252.8041,243.4311 252.5521,243.4055 254.0881,242.9925 C254.0881,253.0074 253.1459,306.0824 255.0690,312.8967 C257.8888,322.8859 268.4588,332.5911 277.5510,333.3459 L277.5510,190.5821 C276.1120,190.9694 269.1945,198.0869 265.9488,200.9453 L240.4856,224.8984 C234.0522,231.3708 222.1980,242.8633 215.3000,248.6321 C214.4159,249.3743 213.8481,250.0324 213.0286,250.8584 L203.7945,259.5957 C202.2588,261.1314 201.0780,262.2995 199.5550,263.8417 C197.8319,265.5840 196.5287,266.3326 194.8056,268.0748 L174.9953,286.6978 C174.9178,286.7624 174.8018,286.8592 174.7242,286.9238 L144.1439,315.7424 C141.6079,318.2914 131.4576,326.8930 130.7992,329.3515 L130.7992,329.3577 Z"
     fill="#0377c0" fill-rule="evenodd"
     id="path5" />
  <path
     d="  M542.5195,377.7993 C543.0938,375.3471 544.3133,371.7851 544.5133,369.3137 C518.1274,369.3137 525.7030,365.0676 514.8881,402.0814 C510.9388,415.5872 507.3576,431.4098 503.4794,445.0834 C501.6596,451.4912 498.4074,450.1811 521.5540,450.1811 C523.7738,450.1811 524.3546,445.3542 525.1741,441.8247 C525.5225,440.3406 526.1098,438.8757 526.5485,437.2108 L533.0916,412.8060 C535.2017,405.6885 536.0728,400.8551 539.5315,394.7895 C544.5971,385.9233 556.7996,383.8841 563.4911,389.2659 C569.7697,394.3184 565.9950,406.2112 564.3687,412.1414 C563.2460,416.2391 562.0843,420.6462 560.8002,425.0472 L555.5477,444.7542 C553.4116,451.9685 550.6821,450.1876 573.4544,450.1876 C576.0615,450.1876 576.5261,444.5929 577.2680,442.0247 L585.1407,412.9609 C588.8962,399.7453 591.1676,386.2912 607.8935,386.2912 C610.3519,386.2912 614.3334,388.2399 615.7597,389.4080 C622.6320,395.0093 617.4311,408.9537 615.4886,415.8521 L607.1838,446.5162 C605.3510,451.6915 606.1448,450.1879 625.8648,450.1879 C627.7298,450.1879 627.8460,447.2519 628.3041,445.6386 L633.0534,427.9254 C637.0544,411.7544 645.1527,392.8411 639.3450,379.8061 C637.7252,376.1731 635.9573,373.7146 632.6661,371.5078 C625.4645,366.6939 614.3721,366.8422 606.3253,369.7461 C602.1955,371.2367 596.3815,375.5601 593.2904,378.6769 C589.1862,382.8262 589.8703,383.5941 587.4248,383.7941 C586.9537,378.1737 581.2751,371.7013 574.7641,369.4945 C567.3499,366.9844 557.6639,367.0423 551.3724,370.7013 C549.2815,371.9208 548.5653,372.5532 546.7003,374.0117 C544.9838,375.3539 544.1513,376.6896 542.4994,377.7996 L542.5195,377.7993 Z"
     fill="#0377c0" fill-rule="evenodd"
     id="path6" />
  <path
     d="  M319.8881,168.6484 L497.0976,168.6484 C499.3496,168.6484 502.5891,161.3374 502.5891,157.6657 C502.5891,154.2780 502.2859,151.5742 499.8853,148.8898 C498.6333,147.4894 495.5424,146.0053 493.4129,145.3729 C486.3986,143.2950 441.1057,145.1018 428.8775,144.4372 C420.2243,143.9726 415.9396,144.4437 408.7445,144.4307 L397.0517,144.5469 C396.9420,144.5469 396.8001,144.5469 396.6968,144.5534 L394.4319,144.5275 C392.5219,144.4372 394.9417,144.3661 392.9089,144.4628 L371.3110,144.6823 C360.4701,144.6823 343.4410,143.0755 335.1878,146.9924 C328.5284,150.1544 323.3339,155.6134 320.3976,162.1566 C319.9586,163.1309 319.2489,164.8475 318.9457,165.7832 C318.4810,167.2222 317.8937,168.6419 319.8943,168.6419 L319.8881,168.6484 Z"
     fill="#0377c0" fill-rule="evenodd"
     id="path7" />
  <path
     d="  M221.5461,413.2387 C221.5461,426.7445 223.8886,433.7266 232.1483,442.0704 C233.7551,443.6967 235.1684,444.7483 237.2139,445.9873 C243.2989,449.6590 252.9073,451.1755 260.4764,451.1755 C272.1692,451.1755 281.4033,446.3941 288.4305,441.6899 C288.2110,439.0311 283.3263,432.8428 281.1516,430.5006 C281.0805,430.4230 280.9773,430.3198 280.9065,430.2490 L279.9451,429.2165 C272.4146,430.9717 273.0146,434.7081 260.4767,434.7081 C242.8086,434.7081 238.3561,419.7630 241.4859,406.7348 C248.0680,379.3616 273.2147,379.4327 279.9581,387.2664 C283.0815,390.8930 282.9328,394.5647 282.9328,401.2628 C280.6808,401.4498 279.4740,401.7790 276.4477,401.7660 L253.9784,401.7654 C252.6684,403.7141 251.4554,405.2112 250.6810,407.9472 C250.0356,410.2251 248.9904,413.4063 248.9904,415.7358 C249.4034,415.8326 295.1415,416.4134 297.4324,415.2582 C302.6850,412.6190 306.5762,390.1824 295.7675,377.4442 C288.2951,368.6361 280.4870,366.8163 268.9556,366.8163 C258.1342,366.8163 250.5518,370.1202 242.3954,375.1987 L236.0262,380.8062 C234.0324,383.2195 232.7094,384.1552 230.8123,387.0785 C226.0114,394.4866 221.5331,403.3333 221.5331,413.2449 L221.5461,413.2387 Z"
     fill="#0377c0" fill-rule="evenodd"
     id="path8" />
  <path
     d="  M448.1716,379.2964 C448.1716,384.2327 449.5849,386.0460 449.6687,389.7759 C452.0112,389.7243 452.9660,388.8467 455.1537,388.2658 C456.9735,387.7883 458.7222,387.3366 460.8582,386.9818 C469.5114,385.5620 484.7662,383.6003 488.0249,393.8476 C489.6252,398.8745 483.4821,423.2082 478.9844,428.5705 C476.4484,431.5906 468.8598,436.6948 464.6461,436.6948 L458.6576,436.6948 C450.9271,436.6948 437.1759,423.2728 463.5683,412.6579 C468.2338,410.7800 474.4929,409.8122 475.2094,409.3219 C476.9581,408.1281 479.1522,401.2687 480.1201,399.2554 C472.0990,395.4093 442.4739,400.8687 431.4781,417.0072 C426.5029,424.3121 425.7545,431.9006 430.9876,439.4052 C434.5174,444.4707 442.8479,450.1749 451.1657,450.1749 C467.3624,450.1749 476.4416,442.3734 477.1257,442.1863 C476.2737,445.8386 475.1318,447.6262 475.1318,450.1749 C497.2846,450.1749 494.4519,451.7817 496.2778,445.3610 L507.4606,403.1333 C509.3706,394.1314 509.7063,384.9814 504.6729,378.7091 C495.6775,367.5004 483.4107,368.8104 471.1436,368.8104 C463.7420,368.8104 448.1843,369.9140 448.1843,379.2899 L448.1716,379.2964 Z"
     fill="#0377c0" fill-rule="evenodd"
     id="path9" />
  <path
     d="  M660.8202,378.7996 C660.8202,381.9938 661.8332,387.7304 662.8140,389.7824 C665.0724,389.5954 665.8663,388.8402 667.8020,388.2788 C669.5893,387.7561 671.3834,387.3753 673.5065,386.9947 C681.4951,385.5623 697.4918,383.8263 700.5375,393.4928 C701.5249,396.6223 700.8924,399.5197 700.2213,402.7268 C699.6275,405.5726 698.9112,408.6248 698.1629,411.6446 C696.8723,416.8264 695.2009,424.0085 692.3551,427.8027 C685.0441,437.5724 667.6793,440.5730 662.6332,431.8874 C655.6835,419.9303 674.5130,412.3673 682.1532,410.6122 C686.9863,409.5021 687.2123,411.5544 689.5418,407.0180 C690.5808,404.9852 692.5619,401.1586 692.7619,398.7583 C680.9016,395.9963 661.8783,401.6297 651.1858,409.5927 C648.0433,411.9287 645.9849,414.4712 643.7651,417.6459 C632.9888,433.0617 647.7852,450.1749 665.3114,450.1749 C671.2094,450.1749 679.8110,447.6840 684.7863,445.1870 L690.2713,442.1863 C689.3678,443.8899 689.3226,444.5094 688.6259,446.5678 C686.9996,451.4009 686.0704,450.1749 706.2423,450.1749 C708.4556,450.1749 710.2043,440.7860 711.0303,437.4886 C713.4371,427.8932 721.2195,402.9528 721.2195,394.7642 C721.2195,386.5756 720.0903,379.6837 713.2436,374.7860 C703.3771,367.7393 696.8920,368.8042 684.7798,368.8042 C677.9590,368.8042 660.8202,369.7721 660.8202,378.7870 L660.8202,378.7996 Z"
     fill="#0377c0" fill-rule="evenodd"
     id="path10" />
  <path
     d="  M366.8071,394.7704 C366.8071,404.9401 374.3184,409.9476 380.8034,413.7160 L392.2573,418.7365 C398.5812,421.5371 400.7494,423.2407 400.7494,428.7127 C400.7494,432.0682 396.9293,434.7140 394.0384,435.4818 C390.7797,436.3464 385.2109,435.9659 381.8683,435.1205 C379.9261,434.6299 378.5709,434.1848 376.6544,433.3458 C373.3119,431.8874 370.5242,430.8679 367.5687,428.4546 L363.8132,425.2218 C362.0386,426.4091 353.8305,434.5334 353.8305,436.7016 C353.8305,443.7353 375.1573,451.1755 384.7787,451.1755 C398.7945,451.1755 411.1130,447.8395 417.5659,436.0435 C424.6252,423.1442 420.0759,411.0965 406.2409,404.2501 C400.8721,401.5914 386.7725,396.6164 386.7725,390.2797 C386.7725,378.8259 402.2465,381.3295 409.8802,384.6398 C412.2743,385.6788 415.2941,387.2986 417.0753,388.9246 C418.3207,390.0668 417.6883,390.1054 419.7146,390.2797 C421.1665,384.8463 433.4333,379.5162 425.5028,374.0055 C421.6376,371.3211 410.5192,366.8169 404.2406,366.8169 C393.1546,366.8169 383.4946,366.9653 375.1573,374.6701 L371.9953,378.4967 C368.9882,382.4587 366.8009,389.3697 366.8009,394.7645 L366.8071,394.7704 Z"
     fill="#0377c0" fill-rule="evenodd"
     id="path11" />
  <path
     d="  M298.4194,450.1814 C318.6492,450.1814 316.2037,451.6980 317.6878,444.9870 C318.2687,442.3737 318.8816,440.9344 319.4300,438.2373 C320.9206,430.8747 328.1092,405.5212 330.8517,400.2427 C331.4777,399.0424 333.3166,396.5839 334.2848,395.6934 C338.3179,391.9830 346.6162,389.7116 352.1850,388.6340 C362.9421,386.5626 360.3801,390.9376 364.4843,375.9733 C365.2716,373.1081 365.3038,371.7659 365.3038,368.3072 C360.2964,367.1393 347.5841,369.0299 340.8990,371.8562 C338.6728,372.7919 336.8660,374.4503 334.8591,375.7990 C335.6335,366.4617 343.2286,367.8104 321.8823,367.8104 C319.7592,367.8104 318.9138,368.9977 318.2365,370.6562 C317.6105,372.1919 317.1781,374.3149 316.6748,376.0831 C315.6294,379.7548 314.8875,383.1749 313.8356,386.7239 C312.8677,389.9957 311.8804,394.1642 311.0028,397.3713 C309.9638,401.1784 308.9573,404.8696 308.0086,408.3540 L297.9808,445.7551 C297.5356,447.1168 295.7415,450.1817 298.4197,450.1817 L298.4194,450.1814 Z"
     fill="#0377c0" fill-rule="evenodd"
     id="path12" />


</svg>
