<?xml version="1.0" encoding="UTF-8" standalone="no"?>


<svg
   xml:space="preserve"
   width="100%"
   height="100%"
   version="1.1"
   style="clip-rule:evenodd;fill-rule:evenodd;image-rendering:optimizeQuality;shape-rendering:geometricPrecision;text-rendering:geometricPrecision"
   viewBox="-1200 -1200 15947 8666"
   id="svg1006"
   sodipodi:docname="Bank Neo Commerce.svg"
   inkscape:version="1.1 (c68e22c387, 2021-05-23)"
   xmlns:inkscape="http://www.inkscape.org/namespaces/inkscape"
   xmlns:sodipodi="http://sodipodi.sourceforge.net/DTD/sodipodi-0.dtd"
   xmlns="http://www.w3.org/2000/svg"
   xmlns:svg="http://www.w3.org/2000/svg">
  <!-- White Background Card -->
  <rect x="-1200" y="-1200" width="15947" height="8666" rx="600" fill="#FFFFFF" />
<sodipodi:namedview
   id="namedview1008"
   pagecolor="#ffffff"
   bordercolor="#666666"
   borderopacity="1.0"
   inkscape:pageshadow="2"
   inkscape:pageopacity="0.0"
   inkscape:pagecheckerboard="0"
   inkscape:document-units="mm"
   showgrid="false"
   inkscape:zoom="0.47426978"
   inkscape:cx="262.50882"
   inkscape:cy="273.05134"
   inkscape:window-width="1366"
   inkscape:window-height="715"
   inkscape:window-x="-8"
   inkscape:window-y="-8"
   inkscape:window-maximized="1"
   inkscape:current-layer="Layer_x0020_1" />
 <defs
   id="defs950">
  <style
   type="text/css"
   id="style948">
   <![CDATA[
    .fil8 {fill:black}
    .fil1 {fill:#4154FF}
    .fil9 {fill:#FFBE00}
    .fil11 {fill:#FFBE00}
    .fil2 {fill:white}
    .fil10 {fill:black;fill-rule:nonzero}
    .fil5 {fill:#009933;fill-rule:nonzero}
    .fil6 {fill:#0F5FFF;fill-rule:nonzero}
    .fil0 {fill:#B3B3B3;fill-rule:nonzero}
    .fil4 {fill:red;fill-rule:nonzero}
    .fil3 {fill:#FFCC00;fill-rule:nonzero}
    .fil7 {fill:white;fill-rule:nonzero}
   ]]>
  </style>
 </defs>
 <g
   id="Layer_x0020_1"
   inkscape:label="Layer 1"
   inkscape:groupmode="layer"
   transform="translate(-1297.4093,-560.43552)">
  <metadata
   id="CorelCorpID_0Corel-Layer" />
  
  
  
  <path
   fill="#000000"
   d="m 3900.3665,2564.1901 v 141.7515 1210.9978 c 0,0 51.8818,668.7506 -583.2638,763.402 h 2572.6198 c 0,0 1282.5114,30.5765 1456.5661,-952.6784 0,0 192.2518,-854.4941 -1105.7203,-1163.1806 911.1042,-358.8152 769.8308,-1021.9871 769.8308,-1021.9871 C 6845.5095,461.53374 5520.2549,589.79004 5520.2549,589.79004 H 3317.1027 c 635.1456,94.67838 583.2638,763.40206 583.2638,763.40206 z m 641.1759,1984.8665 V 2668.0598 c 0,0 -10.6791,-39.7149 58.045,-38.1743 68.6973,1.5143 729.7971,0 729.7971,0 0,0 1047.3832,12.22 1325.2544,717.6039 0,0 262.6229,674.834 -567.9622,1053.4665 0,0 -337.4304,169.4858 -812.2554,172.5406 -474.8516,3.0551 -688.6212,6.11 -688.6212,6.11 0,0 -43.5138,6.8537 -44.2577,-30.5499 z m 0.026,-3829.73482 V 2493.1017 c 0,0 -10.8385,37.4568 58.8154,35.9958 69.6803,-1.4344 399.4066,0 399.4066,0 277.8711,0 1061.941,-11.5026 1343.6639,-676.6936 0,0 283.0516,-665.3765 -559.0629,-1022.43836 C 5562.9977,744.4523 5425.47,699.1588 4944.0302,696.28976 c -481.4131,-2.86905 -357.6196,-5.76465 -357.6196,-5.76465 0,0 -44.0982,-6.48194 -44.8422,28.79667 z"
   id="path993"
   style="stroke-width:2.65649" />
  <path
   fill="#000000"
   d="M 12640.242,1904.0201 V 560.43552 l -225.939,253.43145 c 0,0 -30.549,53.44914 -114.523,10.70579 -83.972,-42.74321 -937.456,-413.75186 -1749.711,-166.43065 -917.6122,279.41201 -1679.075,985.61939 -1679.075,1975.48899 0,989.8433 761.4628,1696.0508 1679.075,1975.4626 812.255,247.3213 1665.739,-123.6606 1749.711,-166.4038 83.974,-42.7433 114.523,10.6791 114.523,10.6791 l 225.939,253.4313 V 3363.2424 c -163.458,488.5593 -465.767,766.4306 -465.767,766.4306 -940.512,971.0615 -1929.878,67.1831 -1929.878,67.1831 -519.8795,-478.305 -610.5993,-1170.3532 -615.6203,-1563.225 5.021,-392.8982 95.7408,-1084.9463 615.6203,-1563.2513 0,0 989.366,-903.85191 1929.878,67.1832 0,0 302.309,277.8714 465.767,766.4571 z"
   id="path995"
   style="stroke-width:2.65649" />
  <path
   fill="#FFFFFF"
   d="M 10519.386,579.45639 H 9154.4438 c 0,0 592.4024,24.41337 583.2375,882.49351 -9.1651,858.0535 0,2024.5015 0,2024.5015 L 6916.1726,576.40135 H 5783.276 c 0,0 386.39,16.04534 542.7523,421.40262 41.4416,107.42923 56.079,243.33643 55.7602,412.21103 -1.5142,806.1719 0,2650.5355 0,2650.5355 0,0 6.0301,619.7909 -769.5918,619.7909 h 1578.7124 c 0,0 -586.2924,-54.8568 -586.2924,-628.9293 0,-574.0724 0,-2714.6372 0,-2714.6372 L 9945.2081,4695.7227 V 1416.1782 c 5.685,-257.177 18.33,-743.55797 574.1779,-836.72181 z"
   id="path997"
   style="fill:#ffbe00;fill-opacity:1;stroke-width:2.65649" />
  <path
   fill="#000000"
   d="m 5452.4077,4680.3414 h 437.3148 c 0,0 618.8084,14.6375 1055.0873,-305.9504 l -272.3722,-596.0683 c -49.783,206.5172 -199.5837,446.5862 -585.7609,622.6332 0,0 -220.1986,110.5643 -555.1316,154.6888 z"
   id="path999"
   style="stroke-width:2.65649" />
  <path
   fill="#000000"
   d="m 10632.262,635.26968 c -27.416,6.96 -54.83,14.55764 -82.193,22.87243 C 9809.9118,883.52073 9171.4722,1386.6376 8952.1771,2092.234 h 736.7571 c 73.5058,-340.6446 230.7979,-722.9699 555.6628,-1021.8542 0,0 149.588,-136.59773 387.665,-246.55089 z"
   id="path1001"
   style="stroke-width:2.65649" />
  <path
   fill="#000000" fill-rule="nonzero"
   d="m 1901.2612,6560.9133 c 0,36.4476 -6.9337,70.796 -20.774,103.3383 -13.5749,32.2502 -32.5422,60.5686 -56.9555,84.6631 -24.1213,24.1213 -52.1474,43.1151 -84.6898,56.9558 -32.2234,13.8668 -66.5721,20.8005 -103.3383,20.8005 h -72.3369 c -36.4473,0 -70.796,-6.9337 -103.3382,-20.8005 -32.2503,-13.8407 -60.5686,-32.8345 -84.6896,-56.9558 -24.0946,-24.0945 -43.0887,-52.4129 -56.9293,-84.6631 -13.8669,-32.5423 -20.8003,-66.8907 -20.8003,-103.3383 v -1017.896 h 108.7842 v 437.82 c 24.7054,-29.514 54.2193,-52.4129 89.1791,-68.9896 34.6675,-16.2846 72.3368,-24.7056 113.0081,-24.7056 h 27.1229 c 36.7662,0 71.1149,6.9068 103.3383,20.774 32.5424,13.8669 60.5685,32.8609 84.6898,56.9555 24.4133,24.121 43.3806,52.4395 56.9555,84.6629 13.8403,32.569 20.774,66.9178 20.774,103.365 z m -108.4655,-414.0441 c 0,-21.9959 -4.224,-42.1853 -12.3527,-61.4715 -8.129,-18.9676 -19.6051,-35.8632 -33.4457,-49.7033 -14.1857,-14.1859 -30.7357,-25.3167 -50.0219,-33.7644 -18.9942,-8.129 -39.476,-12.3528 -61.4718,-12.3528 h -72.3369 c -21.6771,0 -42.1854,4.2238 -61.1529,12.3528 -19.2861,8.4477 -35.8628,19.5785 -50.022,33.7644 -14.1592,13.8401 -25.3167,30.7357 -33.4456,49.7033 -8.4477,19.2862 -12.3527,39.4756 -12.3527,61.4715 v 420.0478 c 0,22.0225 3.905,42.1855 12.3527,61.4718 8.1289,18.994 19.2864,35.8628 33.4456,49.73 14.1592,14.1592 30.7359,25.3165 50.022,33.7376 18.9675,8.1554 39.4758,12.3527 61.1529,12.3527 h 72.3369 c 21.9958,0 42.4776,-4.1973 61.4718,-12.3527 19.2862,-8.4211 35.8362,-19.5784 50.0219,-33.7376 13.8406,-13.8672 25.3167,-30.736 33.4457,-49.73 8.1287,-19.2863 12.3527,-39.4493 12.3527,-61.4718 z m 893.4384,662.0295 -59.9576,-90.1089 c -24.7321,32.5422 -55.76,58.4699 -92.8185,78.0483 -37.0583,19.8973 -77.4373,29.8329 -121.748,29.8329 h -27.4152 c -36.4473,0 -70.8225,-6.9337 -103.3648,-20.8005 -32.2234,-13.8407 -60.542,-32.8345 -84.6633,-56.9558 -24.0945,-24.0945 -43.0883,-52.4129 -56.9555,-84.6631 -13.8669,-32.5423 -20.774,-66.8907 -20.774,-103.3383 v -9.0585 c 0,-36.4477 6.9071,-70.7962 20.774,-103.0461 13.8672,-32.5425 32.861,-60.861 56.9555,-84.982 24.1213,-24.0946 52.4399,-43.0886 84.6633,-56.9557 32.5423,-13.5482 66.9175,-20.4816 103.3648,-20.4816 h 229.6023 v -139.5202 c 0,-21.9959 -4.1973,-42.1853 -12.3527,-61.4715 -8.1288,-18.9676 -19.5784,-35.8632 -33.4455,-49.7033 -14.1591,-14.1859 -30.7357,-25.3167 -50.0221,-33.7644 -18.9675,-8.129 -39.4758,-12.3528 -61.4718,-12.3528 h -63.278 c -21.996,0 -42.4776,4.2238 -61.4717,12.3528 -19.2863,8.4477 -35.8364,19.5785 -50.022,33.7644 -14.1593,13.8401 -25.2902,30.7357 -33.4457,49.7033 -8.1287,19.2862 -12.3528,39.4756 -12.3528,61.4715 v 32.5424 l -108.4654,-17.4533 v -9.0588 c 0,-36.4472 6.9335,-70.796 20.4817,-103.365 13.8672,-32.2234 32.8345,-60.5419 56.9557,-84.6629 24.4134,-24.0946 52.4397,-43.0886 84.9819,-56.9555 32.2234,-13.8672 66.5988,-20.774 103.3383,-20.774 h 63.278 c 36.766,0 71.115,6.9068 103.365,20.774 32.5422,13.8669 60.5686,32.8609 84.663,56.9555 24.4136,24.121 43.4075,52.4395 56.9558,84.6629 13.8669,32.569 20.8005,66.9178 20.8005,103.365 v 655.9992 z m -72.337,-437.8463 h -229.6023 c -21.7036,0 -42.1853,4.2238 -61.1794,12.3529 -19.2864,8.1554 -35.8364,19.605 -49.9957,34.0564 -14.1857,14.4782 -25.3165,31.0547 -33.4719,50.3408 -8.4212,18.9674 -12.3529,39.4493 -12.3529,61.153 v 37.9615 c 0,22.0225 3.9317,42.1855 12.3529,61.4718 8.1554,18.994 19.2862,35.8628 33.4719,49.73 14.1593,14.1592 30.7093,25.3165 49.9957,33.7376 18.9941,8.1554 39.4758,12.3527 61.1794,12.3527 h 72.3102 c 21.996,0 42.5043,-4.1973 61.4718,-12.3527 19.2864,-8.4211 35.863,-19.5784 50.0221,-33.7376 13.8671,-13.8672 25.3167,-30.736 33.4455,-49.73 8.1554,-19.2863 12.3527,-39.4493 12.3527,-61.4718 z m 821.1282,437.8463 v -662.0295 c 0,-21.9959 -4.2239,-42.1853 -12.3528,-61.4715 -8.129,-18.9676 -19.5785,-35.8632 -33.4455,-49.7033 -14.1591,-14.1859 -30.7359,-25.3167 -50.0222,-33.7644 -18.9939,-8.129 -39.4756,-12.3528 -61.4717,-12.3528 h -72.3102 c -21.7036,0 -42.1855,4.2238 -61.1793,12.3528 -19.2864,8.4477 -35.8632,19.5785 -50.0223,33.7644 -14.1592,13.8401 -25.3165,30.7357 -33.4455,49.7033 -8.4478,19.2862 -12.3528,39.4756 -12.3528,61.4715 v 662.0295 h -108.7842 v -903.9846 h 36.1551 l 59.3732,91.8888 c 24.7056,-33.7379 55.7335,-60.2496 93.1106,-79.8281 37.3507,-19.8974 78.0483,-29.8327 122.3325,-29.8327 h 27.1229 c 36.7661,0 71.115,6.9068 103.365,20.774 32.5423,13.8669 60.5686,32.8609 84.6631,56.9555 24.4133,24.121 43.4074,52.4395 56.9556,84.6629 13.867,32.569 20.7741,66.9178 20.7741,103.365 v 655.9992 z m 860.896,0 -369.1224,-452.0055 369.1224,-451.9791 h 141.0344 l -377.5703,451.9791 377.5703,452.0055 z m -498.9992,0 V 5543.0173 h 108.7841 v 1265.8814 z m 1696.1834,0 v -662.0295 c 0,-21.9959 -4.2241,-42.1853 -12.3529,-61.4715 -8.1554,-18.9676 -19.6049,-35.8632 -33.4721,-49.7033 -14.1592,-14.1859 -30.7094,-25.3167 -49.9955,-33.7644 -18.9941,-8.129 -39.4758,-12.3528 -61.4718,-12.3528 h -72.3369 c -21.6769,0 -42.1852,4.2238 -61.1528,12.3528 -19.2863,8.4477 -35.8629,19.5785 -50.0221,33.7644 -14.1591,13.8401 -25.3166,30.7357 -33.4455,49.7033 -8.4477,19.2862 -12.3529,39.4756 -12.3529,61.4715 v 662.0295 h -108.7841 v -903.9846 h 36.1552 l 59.3464,91.8888 c 24.7323,-33.7379 55.7602,-60.2496 93.1108,-79.8281 37.3771,-19.8974 78.0483,-29.8327 122.3589,-29.8327 h 27.123 c 36.7662,0 71.0883,6.9068 103.3385,20.774 32.5421,13.8669 60.5683,32.8609 84.6894,56.9555 24.3868,24.121 43.3809,52.4395 56.9557,84.6629 13.8404,32.569 20.7739,66.9178 20.7739,103.365 v 655.9992 z m 929.5934,-247.9854 c 0,36.4476 -6.9336,70.796 -20.8005,103.3383 -13.5483,32.2502 -32.5423,60.5686 -56.9559,84.6631 -24.0944,24.1213 -52.1205,43.1151 -84.6628,56.9558 -32.2501,13.8668 -66.5989,20.8005 -103.3649,20.8005 h -72.3104 c -36.474,0 -70.8226,-6.9337 -103.365,-20.8005 -32.2234,-13.8407 -60.5683,-32.8345 -84.663,-56.9558 -24.121,-24.0945 -43.0885,-52.4129 -56.9555,-84.6631 -13.867,-32.5423 -20.8005,-66.8907 -20.8005,-103.3383 v -408.0138 c 0,-36.4472 6.9335,-70.796 20.8005,-103.365 13.867,-32.2234 32.8345,-60.5419 56.9555,-84.6629 24.0947,-24.0946 52.4396,-43.0886 84.663,-56.9555 32.5424,-13.8672 66.891,-20.774 103.365,-20.774 h 72.3104 c 36.766,0 71.1148,6.9068 103.3649,20.774 32.5423,13.8669 60.5684,32.8609 84.6628,56.9555 24.4136,24.121 43.4076,52.4395 56.9559,84.6629 13.8669,32.569 20.8005,66.9178 20.8005,103.365 v 212.7336 h -495.0943 v 201.2839 c 0,22.0225 3.9316,42.1855 12.3527,61.4718 8.1555,18.994 19.2864,35.8628 33.4456,49.73 14.1592,14.1592 30.7359,25.3165 50.0221,33.7376 18.994,8.1554 39.4759,12.3527 61.1794,12.3527 h 72.3104 c 21.9959,0 42.4775,-4.1973 61.4715,-12.3527 19.2864,-8.4211 35.8631,-19.5784 50.0223,-33.7376 13.8669,-13.8672 25.3167,-30.736 33.4455,-49.73 8.1554,-19.2863 12.3527,-39.4493 12.3527,-61.4718 v -59.9573 l 108.4921,17.7718 z m -108.4921,-414.0441 c 0,-21.9959 -4.1973,-42.1853 -12.3527,-61.4715 -8.1288,-18.9676 -19.5786,-35.8632 -33.4455,-49.7033 -14.1592,-14.1859 -30.7359,-25.3167 -50.0223,-33.7644 -18.994,-8.129 -39.4756,-12.3528 -61.4715,-12.3528 h -72.3104 c -21.7035,0 -42.1854,4.2238 -61.1794,12.3528 -19.2862,8.4477 -35.8629,19.5785 -50.0221,33.7644 -14.1592,13.8401 -25.2901,30.7357 -33.4456,49.7033 -8.4211,19.2862 -12.3527,39.4756 -12.3527,61.4715 V 6280.97 h 386.6022 z m 929.5935,414.0441 c 0,36.4476 -6.9335,70.796 -20.7739,103.3383 -13.5749,32.2502 -32.5424,60.5686 -56.9557,84.6631 -24.1211,24.1213 -52.1206,43.1151 -84.6895,56.9558 -32.2235,13.8668 -66.5723,20.8005 -103.3384,20.8005 h -72.3103 c -36.4738,0 -70.8228,-6.9337 -103.3649,-20.8005 -32.2501,-13.8407 -60.5684,-32.8345 -84.6896,-56.9558 -24.0944,-24.0945 -43.0621,-52.4129 -56.9291,-84.6631 -13.8669,-32.5423 -20.8003,-66.8907 -20.8003,-103.3383 v -408.0138 c 0,-36.4472 6.9334,-70.796 20.8003,-103.365 13.867,-32.2234 32.8347,-60.5419 56.9291,-84.6629 24.1212,-24.0946 52.4395,-43.0886 84.6896,-56.9555 32.5421,-13.8672 66.8911,-20.774 103.3649,-20.774 h 72.3103 c 36.7661,0 71.1149,6.9068 103.3384,20.774 32.5689,13.8669 60.5684,32.8609 84.6895,56.9555 24.4133,24.121 43.3808,52.4395 56.9557,84.6629 13.8404,32.569 20.7739,66.9178 20.7739,103.365 z M 7135.335,6146.8692 c 0,-21.9959 -4.2241,-42.1853 -12.353,-61.4715 -8.1289,-18.9676 -19.5784,-35.8632 -33.4455,-49.7033 -14.159,-14.1859 -30.7357,-25.3167 -50.022,-33.7644 -18.9941,-8.129 -39.4758,-12.3528 -61.4717,-12.3528 h -72.3103 c -21.7036,0 -42.1855,4.2238 -61.1794,12.3528 -19.2862,8.4477 -35.863,19.5785 -50.0222,33.7644 -14.1593,13.8401 -25.3166,30.7357 -33.4455,49.7033 -8.4478,19.2862 -12.3529,39.4756 -12.3529,61.4715 v 420.0478 c 0,22.0225 3.9051,42.1855 12.3529,61.4718 8.1289,18.994 19.2862,35.8628 33.4455,49.73 14.1592,14.1592 30.736,25.3165 50.0222,33.7376 18.9939,8.1554 39.4758,12.3527 61.1794,12.3527 h 72.3103 c 21.9959,0 42.4776,-4.1973 61.4717,-12.3527 19.2863,-8.4211 35.863,-19.5784 50.022,-33.7376 13.8671,-13.8672 25.3166,-30.736 33.4455,-49.73 8.1289,-19.2863 12.353,-39.4493 12.353,-61.4718 z m 1345.4174,414.0441 c 0,36.4476 -6.9336,70.796 -20.774,103.3383 -13.5749,32.2502 -32.5423,60.5686 -56.9557,84.6631 -24.1211,24.1213 -52.1473,43.1151 -84.6895,56.9558 -32.2236,13.8668 -66.5722,20.8005 -103.3385,20.8005 h -72.3366 c -36.4475,0 -70.7963,-6.9337 -103.3385,-20.8005 -32.2501,-13.8407 -60.5685,-32.8345 -84.6895,-56.9558 -24.0948,-24.0945 -43.0888,-52.4129 -56.9292,-84.6631 -13.8669,-32.5423 -20.8004,-66.8907 -20.8004,-103.3383 v -408.0138 c 0,-36.4472 6.9335,-70.796 20.8004,-103.365 13.8404,-32.2234 32.8344,-60.5419 56.9292,-84.6629 24.121,-24.0946 52.4394,-43.0886 84.6895,-56.9555 32.5422,-13.8672 66.891,-20.774 103.3385,-20.774 h 72.3366 c 36.7663,0 71.1149,6.9068 103.3385,20.774 32.5422,13.8669 60.5684,32.8609 84.6895,56.9555 24.4134,24.121 43.3808,52.4395 56.9557,84.6629 13.8404,32.569 20.774,66.9178 20.774,103.365 v 36.1552 l -108.4657,17.772 v -59.9575 c 0,-21.9959 -4.2237,-42.1853 -12.3526,-61.4715 -8.1289,-18.9676 -19.6051,-35.8632 -33.4456,-49.7033 -14.1591,-14.1859 -30.7357,-25.3167 -50.0219,-33.7644 -18.9942,-8.129 -39.4759,-12.3528 -61.4719,-12.3528 h -72.3366 c -21.6774,0 -42.1855,4.2238 -61.153,12.3528 -19.2863,8.4477 -35.8629,19.5785 -50.0221,33.7644 -14.1593,13.8401 -25.3167,30.7357 -33.4455,49.7033 -8.4479,19.2862 -12.3529,39.4756 -12.3529,61.4715 v 420.0478 c 0,22.0225 3.905,42.1855 12.3529,61.4718 8.1288,18.994 19.2862,35.8628 33.4455,49.73 14.1592,14.1592 30.7358,25.3165 50.0221,33.7376 18.9675,8.1554 39.4756,12.3527 61.153,12.3527 h 72.3366 c 21.996,0 42.4777,-4.1973 61.4719,-12.3527 19.2862,-8.4211 35.8628,-19.5784 50.0219,-33.7376 13.8405,-13.8672 25.3167,-30.736 33.4456,-49.73 8.1289,-19.2863 12.3526,-39.4493 12.3526,-61.4718 v -59.9573 l 108.4657,17.7718 z m 821.128,0 c 0,36.4476 -6.9335,70.796 -20.8006,103.3383 -13.5482,32.2502 -32.5421,60.5686 -56.9555,84.6631 -24.0946,24.1213 -52.1208,43.1151 -84.663,56.9558 -32.2503,13.8668 -66.5989,20.8005 -103.3385,20.8005 h -72.3368 c -36.4472,0 -70.796,-6.9337 -103.3648,-20.8005 -32.2236,-13.8407 -60.5419,-32.8345 -84.6632,-56.9558 -24.0945,-24.0945 -43.0886,-52.4129 -56.9557,-84.6631 -13.8668,-32.5423 -20.7738,-66.8907 -20.7738,-103.3383 v -408.0138 c 0,-36.4472 6.907,-70.796 20.7738,-103.365 13.8671,-32.2234 32.8612,-60.5419 56.9557,-84.6629 24.1213,-24.0946 52.4396,-43.0886 84.6632,-56.9555 32.5688,-13.8672 66.9176,-20.774 103.3648,-20.774 h 72.3368 c 36.7396,0 71.0882,6.9068 103.3385,20.774 32.5422,13.8669 60.5684,32.8609 84.663,56.9555 24.4134,24.121 43.4073,52.4395 56.9555,84.6629 13.8671,32.569 20.8006,66.9178 20.8006,103.365 z M 9193.415,6146.8692 c 0,-21.9959 -4.224,-42.1853 -12.3528,-61.4715 -8.1555,-18.9676 -19.6049,-35.8632 -33.4721,-49.7033 -14.1591,-14.1859 -30.7358,-25.3167 -50.0222,-33.7644 -18.9674,-8.129 -39.4756,-12.3528 -61.4451,-12.3528 h -72.3368 c -21.7038,0 -42.1854,4.2238 -61.1795,12.3528 -19.2864,8.4477 -35.8364,19.5785 -49.9955,33.7644 -14.1593,13.8401 -25.3166,30.7357 -33.4456,49.7033 -8.4476,19.2862 -12.3527,39.4756 -12.3527,61.4715 v 420.0478 c 0,22.0225 3.9051,42.1855 12.3527,61.4718 8.129,18.994 19.2863,35.8628 33.4456,49.73 14.1591,14.1592 30.7091,25.3165 49.9955,33.7376 18.9941,8.1554 39.4757,12.3527 61.1795,12.3527 h 72.3368 c 21.9695,0 42.4777,-4.1973 61.4451,-12.3527 19.2864,-8.4211 35.8631,-19.5784 50.0222,-33.7376 13.8672,-13.8672 25.3166,-30.736 33.4721,-49.73 8.1288,-19.2863 12.3528,-39.4493 12.3528,-61.4718 z m 1280.041,662.0295 v -662.0295 c 0,-21.9959 -3.932,-42.1853 -12.38,-61.4715 -8.129,-18.9676 -19.286,-35.8632 -33.445,-49.7033 -14.16,-14.1859 -30.709,-25.3167 -49.996,-33.7644 -18.994,-8.129 -39.503,-12.3528 -61.179,-12.3528 h -53.954 c -21.678,0 -42.185,4.2238 -61.153,12.3528 -19.287,8.4477 -36.155,19.5785 -50.341,33.7644 -14.451,13.8401 -25.901,30.7357 -34.03,49.7033 -8.448,19.2862 -12.352,39.4756 -12.352,61.4715 v 662.0295 h -107.8816 v -662.0295 c 0,-21.9959 -3.9052,-42.1853 -12.3529,-61.4715 -8.1289,-18.9676 -19.5784,-35.8632 -33.7642,-49.7033 -14.4514,-14.1859 -31.3202,-25.3167 -50.3142,-33.7644 -19.2864,-8.129 -39.7682,-12.3528 -61.4716,-12.3528 h -53.9274 c -21.7036,0 -42.1855,4.2238 -61.1795,12.3528 -19.2863,8.4477 -35.8629,19.5785 -50.0221,33.7644 -14.1594,13.8401 -25.3166,30.7357 -33.4455,49.7033 -8.4476,19.2862 -12.3527,39.4756 -12.3527,61.4715 v 662.0295 h -108.7844 v -903.9846 h 36.155 l 59.3732,91.8888 c 24.7056,-33.7379 55.7337,-60.2496 93.1108,-79.8281 37.3506,-19.8974 78.0483,-29.8327 122.3325,-29.8327 h 8.7401 c 51.2172,0 97.3344,12.6451 138.6166,37.9617 41.2819,25.3162 72.9209,59.0541 95.2089,100.6285 11.158,-20.4818 25.025,-39.4756 41.601,-56.3445 16.577,-17.1612 34.642,-31.6392 54.831,-43.6732 19.897,-12.0607 41.574,-21.4115 65.085,-28.345 23.801,-6.6147 48.215,-10.2275 73.532,-10.2275 h 8.74 c 36.447,0 70.796,6.9068 103.365,20.774 32.223,13.8669 60.542,32.8609 84.662,56.9555 24.096,24.121 43.089,52.4395 56.956,84.6629 13.867,32.569 20.774,66.9178 20.774,103.365 v 655.9992 z m 1280.039,0 v -662.0295 c 0,-21.9959 -3.929,-42.1853 -12.379,-61.4715 -8.127,-18.9676 -19.285,-35.8632 -33.446,-49.7033 -14.158,-14.1859 -30.707,-25.3167 -49.995,-33.7644 -18.993,-8.129 -39.475,-12.3528 -61.178,-12.3528 h -53.928 c -21.704,0 -42.184,4.2238 -61.178,12.3528 -19.288,8.4477 -36.158,19.5785 -50.316,33.7644 -14.479,13.8401 -25.927,30.7357 -34.056,49.7033 -8.448,19.2862 -12.353,39.4756 -12.353,61.4715 v 662.0295 h -107.881 v -662.0295 c 0,-21.9959 -3.905,-42.1853 -12.354,-61.4715 -8.129,-18.9676 -19.577,-35.8632 -33.763,-49.7033 -14.452,-14.1859 -31.32,-25.3167 -50.313,-33.7644 -19.288,-8.129 -39.77,-12.3528 -61.474,-12.3528 h -53.927 c -21.703,0 -42.184,4.2238 -61.179,12.3528 -19.287,8.4477 -35.862,19.5785 -50.022,33.7644 -14.159,13.8401 -25.291,30.7357 -33.445,49.7033 -8.422,19.2862 -12.353,39.4756 -12.353,61.4715 v 662.0295 h -108.784 v -903.9846 h 36.155 l 59.372,91.8888 c 24.706,-33.7379 55.735,-60.2496 93.11,-79.8281 37.378,-19.8974 78.049,-29.8327 122.334,-29.8327 h 8.739 c 51.244,0 97.335,12.6451 138.617,37.9617 41.283,25.3162 72.922,59.0541 95.211,100.6285 11.157,-20.4818 25.025,-39.4756 41.6,-56.3445 16.576,-17.1612 34.641,-31.6392 54.83,-43.6732 19.897,-12.0607 41.574,-21.4115 65.085,-28.345 23.803,-6.6147 48.216,-10.2275 73.533,-10.2275 h 8.74 c 36.447,0 70.797,6.9068 103.363,20.774 32.225,13.8669 60.543,32.8609 84.664,56.9555 24.094,24.121 43.089,52.4395 56.955,84.6629 13.868,32.569 20.801,66.9178 20.801,103.365 v 655.9992 z m 929.593,-247.9854 c 0,36.4476 -6.932,70.796 -20.798,103.3383 -13.55,32.2502 -32.544,60.5686 -56.958,84.6631 -24.092,24.1213 -52.118,43.1151 -84.662,56.9558 -32.249,13.8668 -66.597,20.8005 -103.366,20.8005 h -72.309 c -36.448,0 -70.822,-6.9337 -103.364,-20.8005 -32.223,-13.8407 -60.568,-32.8345 -84.663,-56.9558 -24.121,-24.0945 -43.09,-52.4129 -56.955,-84.6631 -13.867,-32.5423 -20.774,-66.8907 -20.774,-103.3383 v -408.0138 c 0,-36.4472 6.907,-70.796 20.774,-103.365 13.865,-32.2234 32.834,-60.5419 56.955,-84.6629 24.095,-24.0946 52.44,-43.0886 84.663,-56.9555 32.542,-13.8672 66.916,-20.774 103.364,-20.774 h 72.309 c 36.769,0 71.117,6.9068 103.366,20.774 32.544,13.8669 60.57,32.8609 84.662,56.9555 24.414,24.121 43.408,52.4395 56.958,84.6629 13.866,32.569 20.798,66.9178 20.798,103.365 v 212.7336 h -495.091 v 201.2839 c 0,22.0225 3.93,42.1855 12.35,61.4718 8.156,18.994 19.288,35.8628 33.447,49.73 14.159,14.1592 30.736,25.3165 50.023,33.7376 18.992,8.1554 39.475,12.3527 61.178,12.3527 h 72.309 c 21.996,0 42.505,-4.1973 61.474,-12.3527 19.285,-8.4211 35.862,-19.5784 50.023,-33.7376 13.866,-13.8672 25.315,-30.736 33.444,-49.73 8.155,-19.2863 12.353,-39.4493 12.353,-61.4718 v -59.9573 l 108.49,17.7718 z m -108.49,-414.0441 c 0,-21.9959 -4.198,-42.1853 -12.353,-61.4715 -8.129,-18.9676 -19.578,-35.8632 -33.444,-49.7033 -14.161,-14.1859 -30.738,-25.3167 -50.023,-33.7644 -18.969,-8.129 -39.478,-12.3528 -61.474,-12.3528 h -72.309 c -21.703,0 -42.186,4.2238 -61.178,12.3528 -19.287,8.4477 -35.864,19.5785 -50.023,33.7644 -14.159,13.8401 -25.291,30.7357 -33.447,49.7033 -8.42,19.2862 -12.35,39.4756 -12.35,61.4715 V 6280.97 h 386.601 z m 591.526,-138.5902 c -21.705,0 -42.186,3.9052 -61.18,12.3526 -19.287,8.1291 -35.864,19.2864 -50.022,33.4456 -14.159,14.1594 -25.318,30.7359 -33.444,50.0222 -8.449,18.9676 -12.354,39.4493 -12.354,61.1529 v 643.6464 h -108.785 v -903.9846 h 36.155 l 59.374,91.8888 c 24.704,-33.7379 55.733,-60.2496 93.111,-79.8281 37.35,-19.8974 78.047,-29.8327 122.332,-29.8327 h 63.571 v 121.1369 z m 857.255,552.6343 c 0,36.4476 -6.933,70.796 -20.774,103.3383 -13.573,32.2502 -32.541,60.5686 -56.954,84.6631 -24.123,24.1213 -52.122,43.1151 -84.689,56.9558 -32.224,13.8668 -66.572,20.8005 -103.34,20.8005 h -72.309 c -36.474,0 -70.823,-6.9337 -103.366,-20.8005 -32.251,-13.8407 -60.568,-32.8345 -84.691,-56.9558 -24.093,-24.0945 -43.06,-52.4129 -56.928,-84.6631 -13.866,-32.5423 -20.8,-66.8907 -20.8,-103.3383 v -408.0138 c 0,-36.4472 6.934,-70.796 20.8,-103.365 13.868,-32.2234 32.835,-60.5419 56.928,-84.6629 24.123,-24.0946 52.44,-43.0886 84.691,-56.9555 32.543,-13.8672 66.892,-20.774 103.366,-20.774 h 72.309 c 36.768,0 71.116,6.9068 103.34,20.774 32.567,13.8669 60.566,32.8609 84.689,56.9555 24.413,24.121 43.381,52.4395 56.954,84.6629 13.841,32.569 20.774,66.9178 20.774,103.365 v 36.1552 l -108.465,17.772 v -59.9575 c 0,-21.9959 -4.223,-42.1853 -12.352,-61.4715 -8.13,-18.9676 -19.578,-35.8632 -33.446,-49.7033 -14.16,-14.1859 -30.736,-25.3167 -50.023,-33.7644 -18.993,-8.129 -39.474,-12.3528 -61.471,-12.3528 h -72.309 c -21.704,0 -42.186,4.2238 -61.182,12.3528 -19.283,8.4477 -35.862,19.5785 -50.02,33.7644 -14.16,13.8401 -25.317,30.7357 -33.447,49.7033 -8.446,19.2862 -12.352,39.4756 -12.352,61.4715 v 420.0478 c 0,22.0225 3.906,42.1855 12.352,61.4718 8.13,18.994 19.287,35.8628 33.447,49.73 14.158,14.1592 30.737,25.3165 50.02,33.7376 18.996,8.1554 39.478,12.3527 61.182,12.3527 h 72.309 c 21.997,0 42.478,-4.1973 61.471,-12.3527 19.287,-8.4211 35.863,-19.5784 50.023,-33.7376 13.868,-13.8672 25.316,-30.736 33.446,-49.73 8.129,-19.2863 12.352,-39.4493 12.352,-61.4718 v -59.9573 l 108.465,17.7718 z m 821.129,0 c 0,36.4476 -6.934,70.796 -20.799,103.3383 -13.551,32.2502 -32.543,60.5686 -56.93,84.6631 -24.12,24.1213 -52.147,43.1151 -84.692,56.9558 -32.249,13.8668 -66.572,20.8005 -103.335,20.8005 h -72.338 c -36.448,0 -70.797,-6.9337 -103.365,-20.8005 -32.223,-13.8407 -60.543,-32.8345 -84.662,-56.9558 -24.096,-24.0945 -43.091,-52.4129 -56.958,-84.6631 -13.866,-32.5423 -20.773,-66.8907 -20.773,-103.3383 v -408.0138 c 0,-36.4472 6.907,-70.796 20.773,-103.365 13.867,-32.2234 32.862,-60.5419 56.958,-84.6629 24.119,-24.0946 52.439,-43.0886 84.662,-56.9555 32.568,-13.8672 66.917,-20.774 103.365,-20.774 h 72.338 c 36.763,0 71.086,6.9068 103.335,20.774 32.545,13.8669 60.572,32.8609 84.692,56.9555 24.387,24.121 43.379,52.4395 56.93,84.6629 13.865,32.569 20.799,66.9178 20.799,103.365 v 212.7336 h -495.068 v 201.2839 c 0,22.0225 3.905,42.1855 12.354,61.4718 8.128,18.994 19.284,35.8628 33.445,49.73 14.159,14.1592 30.735,25.3165 49.995,33.7376 18.994,8.1554 39.501,12.3527 61.18,12.3527 h 72.338 c 21.967,0 42.475,-4.1973 61.471,-12.3527 19.285,-8.4211 35.836,-19.5784 49.996,-33.7376 13.865,-13.8672 25.314,-30.736 33.472,-49.73 8.127,-19.2863 12.352,-39.4493 12.352,-61.4718 v -59.9573 l 108.465,17.7718 z m -108.465,-414.0441 c 0,-21.9959 -4.225,-42.1853 -12.352,-61.4715 -8.158,-18.9676 -19.607,-35.8632 -33.472,-49.7033 -14.16,-14.1859 -30.711,-25.3167 -49.996,-33.7644 -18.996,-8.129 -39.504,-12.3528 -61.471,-12.3528 h -72.338 c -21.679,0 -42.186,4.2238 -61.18,12.3528 -19.26,8.4477 -35.836,19.5785 -49.995,33.7644 -14.161,13.8401 -25.317,30.7357 -33.445,49.7033 -8.449,19.2862 -12.354,39.4756 -12.354,61.4715 V 6280.97 h 386.603 z"
   id="path1003"
   style="stroke-width:2.65649" />
 </g>
</svg>
