<?xml version="1.0" encoding="iso-8859-1"?>
<!-- Generator: Adobe Illustrator 27.0.0, SVG Export Plug-In . SVG Version: 6.00 Build 0)  -->
<svg version="1.1" id="Layer_1" xmlns="http://www.w3.org/2000/svg" xmlns:xlink="http://www.w3.org/1999/xlink" x="0px" y="0px"
	 viewBox="20 180 460 150" style="enable-background:new 20 180 460 150;" xml:space="preserve">
<g>
</g>
<g>
	<g>
		<g>
			<path d="M208.491,230.238c-0.602-1.054-1.382-1.902-2.34-2.532c-0.944-0.629-1.984-1.108-3.107-1.423
				c-0.561-0.164-1.122-0.288-1.683-0.383c0.616-0.233,1.191-0.493,1.724-0.78c0.985-0.52,1.875-1.19,2.641-1.998
				c0.766-0.807,1.355-1.711,1.779-2.723c0.411-0.999,0.616-2.121,0.616-3.312c0-1.793-0.451-3.257-1.341-4.352
				c-0.889-1.081-2.203-1.875-3.941-2.327c-1.67-0.452-3.832-0.684-6.391-0.684h-10.291v35.281h7.581
				c1.601,0,2.984-0.027,4.147-0.096c1.15-0.068,2.354-0.26,3.558-0.575c1.218-0.328,2.299-0.794,3.23-1.423
				c3.134-2.176,4.722-5.159,4.722-8.854C209.394,232.578,209.079,231.291,208.491,230.238z M191.302,212.296h3.394
				c1.848,0,3.394,0.178,4.612,0.534c1.177,0.356,2.094,0.972,2.71,1.82c0.629,0.862,0.958,2.039,0.958,3.503
				c0,1.314-0.328,2.491-0.958,3.49c-0.643,0.999-1.56,1.793-2.723,2.34c-0.931,0.424-1.875,0.698-2.819,0.835
				c-0.958,0.137-2.107,0.205-3.435,0.205h-1.738V212.296z M202.962,238.791c-0.684,1.136-1.656,2.039-2.887,2.682
				c-1.232,0.643-2.682,0.972-4.297,0.972h-4.475v-14.849h2.491c3.285,0,5.844,0.561,7.609,1.67
				c1.738,1.095,2.586,2.942,2.586,5.652C203.988,236.341,203.646,237.642,202.962,238.791z"/>
			<path d="M236.45,242.555c-1.204,0.274-1.848,0.274-2.108,0.014c-0.151-0.151-0.233-0.342-0.26-0.588
				c-0.041-0.301-0.068-0.78-0.068-1.423v-11.783c0-2.929-0.739-5.159-2.19-6.651c-1.451-1.478-3.599-2.231-6.377-2.231
				c-2.792,0-5.611,0.958-8.389,2.86l-0.15,0.11v3.339h1.163l0.082-0.233c0.137-0.411,0.438-0.876,0.917-1.369
				c0.479-0.507,1.136-0.944,1.971-1.328c0.835-0.369,1.793-0.561,2.833-0.561c1.793,0,3.175,0.493,4.147,1.451
				c0.958,0.958,1.451,2.368,1.451,4.16c0,0.725-0.137,1.259-0.411,1.601c-0.274,0.328-0.725,0.602-1.327,0.766
				c-0.657,0.205-1.793,0.424-3.367,0.698c-2.08,0.328-3.777,0.698-5.022,1.081c-1.3,0.41-2.409,1.136-3.298,2.176
				c-0.903,1.054-1.369,2.532-1.369,4.393c0,1.916,0.712,3.503,2.121,4.722c1.382,1.204,3.066,1.82,4.995,1.82
				c2.956,0,5.556-1.109,7.746-3.285c0.205,0.835,0.602,1.478,1.163,1.889c0.698,0.52,1.588,0.794,2.682,0.821
				c0.548,0,1.109-0.041,1.67-0.151c0.479-0.082,1.013-0.274,1.615-0.547l0.205-0.082v-1.779L236.45,242.555z M229.265,239.558
				c-0.014,0.027-0.055,0.11-0.192,0.274c-0.15,0.205-0.328,0.397-0.52,0.561c-0.192,0.192-0.383,0.37-0.548,0.534
				c-0.465,0.465-1.095,0.903-1.847,1.273c-0.739,0.383-1.41,0.561-1.985,0.561c-1.492,0-2.655-0.369-3.449-1.108
				c-0.794-0.725-1.19-1.848-1.19-3.339c0-0.999,0.246-1.847,0.753-2.491c0.506-0.657,1.149-1.163,1.916-1.506
				c0.808-0.356,1.683-0.629,2.587-0.835c0.958-0.205,1.998-0.411,3.107-0.602l1.369-0.288V239.558z"/>
			<path d="M254.242,219.892c-3.298,0-5.923,1.375-7.818,4.094v-3.821l-0.366,0.027c-0.468,0.033-0.871,0.065-1.212,0.099
				c-0.678,0.067-0.989,0.061-1.633,0c-0.35-0.033-0.74-0.065-1.172-0.099l-0.369-0.029v25.037l0.381-0.043
				c0.294-0.032,0.581-0.06,0.858-0.086l0.559-0.049c0.087-0.008,0.281-0.011,0.579-0.011c0.263,0,0.465,0.007,0.608,0.024
				c0.152,0.016,0.341,0.032,0.571,0.049c0.221,0.016,0.493,0.04,0.821,0.074l0.377,0.037v-12.16c0-3.33,0.473-5.844,1.406-7.471
				c0.909-1.586,2.511-2.358,4.899-2.358c1.397,0,2.495,0.335,3.262,0.996c0.777,0.668,1.311,1.589,1.59,2.736
				c0.29,1.196,0.437,2.662,0.437,4.36v13.902l0.381-0.043c0.291-0.032,0.547-0.056,0.768-0.072
				c0.227-0.017,0.417-0.033,0.572-0.051c0.27-0.029,0.996-0.032,1.274,0c0.143,0.017,0.329,0.033,0.56,0.051
				c0.221,0.016,0.493,0.04,0.821,0.074l0.377,0.037v-15.063c0-3.468-0.663-6.064-1.971-7.717
				C259.472,220.74,257.266,219.892,254.242,219.892z"/>
			<path d="M291.328,244.443v0.739l-0.37-0.027c-0.438-0.027-0.78-0.055-1.026-0.068c-0.26-0.014-0.479-0.041-0.671-0.055
				c-0.178-0.014-0.424-0.027-0.766-0.027c-0.383,0-0.629,0.014-0.739,0.014l-0.698,0.055c-0.342,0.027-0.698,0.055-1.054,0.082
				l-0.192,0.014l-0.11-0.151c-0.752-0.985-2.011-2.518-3.722-4.516c-1.738-2.012-3.723-4.311-5.994-6.897
				c-0.575-0.63-0.835-0.671-0.903-0.671c-0.082,0-0.301,0.274-0.301,1.519v10.743l-0.383-0.041
				c-0.329-0.027-0.602-0.055-0.821-0.068c-0.233-0.014-0.411-0.041-0.575-0.055c-0.137-0.014-0.342-0.027-0.602-0.027
				c-0.301,0-0.493,0.014-0.575,0.014l-0.561,0.055c-0.274,0.027-0.561,0.055-0.862,0.082l-0.383,0.041v-33.009h4.762v17.244
				c0,0.821,0.014,1.122,0.041,1.232c0,0.041,0.014,0.068,0.014,0.082c0.629-0.082,1.82-0.684,4.023-2.888l3.148-3.202l4.065-4.475
				l0.178,0.014c0.424,0.027,0.821,0.068,1.163,0.096c0.342,0.027,0.616,0.055,0.835,0.055c0.178,0,0.424-0.027,0.753-0.055
				c0.342-0.027,0.739-0.068,1.218-0.096l0.356-0.027v0.889l-0.109,0.096c-0.534,0.492-0.999,0.903-1.41,1.232
				c-0.411,0.328-1.327,1.095-2.751,2.313c-1.41,1.177-2.806,2.409-4.188,3.64c-1.177,1.068-2.039,1.861-2.6,2.381
				c0.52,0.588,1.19,1.369,2.012,2.326c0.931,1.109,2.025,2.381,3.271,3.832c1.245,1.464,2.395,2.778,3.408,3.969
				c1.026,1.191,2.039,2.354,3.024,3.504L291.328,244.443z"/>
		</g>
		<g>
			<path d="M207.184,274.091c-1.66-1.459-4.152-2.852-7.411-4.142c-3.191-1.263-5.569-2.479-7.067-3.618
				c-1.433-1.088-2.158-2.835-2.158-5.192c0-1.315,0.327-2.502,0.974-3.524c0.65-1.024,1.541-1.83,2.652-2.395
				c1.117-0.568,2.367-0.857,3.717-0.857c1.687,0,3.183,0.454,4.448,1.353c1.267,0.898,2.208,2.153,2.796,3.727l0.083,0.222h1.089
				l0.074-0.246c0.766-2.597,1.312-4.266,1.621-4.961l0.099-0.223l-0.179-0.167c-1.083-1.001-2.454-1.763-4.078-2.265
				c-1.605-0.493-3.237-0.744-4.851-0.744c-3.972,0-7.309,1.046-9.921,3.111c-2.635,2.085-3.972,5.091-3.972,8.936
				c0,3.165,0.869,5.564,2.583,7.133c1.672,1.53,4.138,2.94,7.328,4.19c3.125,1.226,5.478,2.423,6.992,3.559
				c1.451,1.088,2.186,2.855,2.186,5.251c0,1.524-0.357,2.962-1.061,4.275c-0.703,1.311-1.684,2.364-2.916,3.133
				c-1.231,0.766-2.633,1.155-4.168,1.155c-2.122,0-3.94-0.511-5.405-1.518c-1.481-1.018-2.881-2.587-4.162-4.663l-0.1-0.163h-1.117
				l-0.039,0.298c-0.294,2.253-0.679,4.052-1.144,5.35l-0.07,0.192l0.138,0.152c1.01,1.112,2.569,2.011,4.632,2.673
				c2.042,0.652,3.916,0.984,5.569,0.984c2.133,0,4.144-0.322,5.979-0.957c1.839-0.636,3.495-1.59,4.922-2.836
				c1.431-1.248,2.554-2.772,3.334-4.527c0.781-1.755,1.176-3.75,1.176-5.931C209.758,277.866,208.892,275.59,207.184,274.091z"/>
			<path d="M240.692,291.357c-1.478,0.356-2.258,0.342-2.586,0.014c-0.192-0.192-0.301-0.438-0.342-0.739
				c-0.041-0.383-0.068-0.958-0.068-1.738v-14.137c0-3.504-0.876-6.158-2.614-7.924c-1.738-1.779-4.297-2.669-7.623-2.669
				c-3.325,0-6.692,1.15-10.018,3.421l-0.15,0.11v3.914h1.286l0.068-0.233c0.164-0.506,0.534-1.068,1.109-1.67
				c0.589-0.616,1.396-1.163,2.395-1.615c1.013-0.452,2.162-0.684,3.435-0.684c2.162,0,3.846,0.589,5.023,1.765
				c1.163,1.163,1.751,2.86,1.751,5.036c0,0.889-0.164,1.546-0.506,1.971c-0.328,0.411-0.876,0.739-1.628,0.958
				c-0.794,0.233-2.149,0.507-4.037,0.821c-2.505,0.397-4.53,0.835-6.035,1.3c-1.546,0.493-2.86,1.355-3.928,2.6
				c-1.068,1.246-1.615,2.997-1.615,5.214c0,2.286,0.849,4.174,2.518,5.625c1.656,1.437,3.654,2.176,5.953,2.176
				c3.544,0,6.651-1.327,9.278-3.955l0.068-0.068c0.233,1.054,0.712,1.848,1.396,2.354c0.821,0.602,1.889,0.931,3.175,0.972
				c0.643,0,1.314-0.055,1.998-0.178c0.561-0.11,1.204-0.328,1.93-0.657l0.191-0.082v-1.998L240.692,291.357z M232.125,287.716
				c-0.014,0.027-0.055,0.123-0.246,0.356c-0.191,0.26-0.397,0.493-0.629,0.698c-0.233,0.219-0.465,0.424-0.657,0.629
				c-0.575,0.561-1.327,1.081-2.245,1.547c-0.889,0.452-1.711,0.671-2.409,0.671c-1.806,0-3.216-0.452-4.188-1.355
				c-0.958-0.89-1.45-2.245-1.45-4.051c0-1.218,0.301-2.244,0.917-3.038c0.616-0.794,1.396-1.41,2.326-1.82
				c0.972-0.438,2.025-0.766,3.134-1.013c1.15-0.246,2.395-0.493,3.709-0.725l1.738-0.37V287.716z"/>
			<path d="M279.373,264.162c-3.896,0-7.091,1.887-9.508,5.609c-0.662-1.622-1.755-2.942-3.26-3.929
				c-1.697-1.115-3.624-1.68-5.727-1.68c-1.409,0-2.709,0.234-3.865,0.695c-1.157,0.461-2.192,1.127-3.074,1.978
				c-0.62,0.599-1.204,1.298-1.743,2.086v-4.426l-0.366,0.027c-0.56,0.04-1.041,0.079-1.441,0.119c-0.794,0.08-1.239,0.075-2.002,0
				c-0.408-0.04-0.873-0.079-1.391-0.119l-0.369-0.029v29.903l0.376-0.036c0.416-0.04,0.851-0.08,1.307-0.119
				c0.966-0.086,1.554-0.067,1.851-0.032c0.172,0.021,0.396,0.041,0.671,0.061c0.266,0.019,0.593,0.049,0.988,0.09l0.377,0.037
				v-18.129c0-1.647,0.186-3.095,0.551-4.309c0.353-1.171,1.037-2.133,2.034-2.86c0.997-0.727,2.476-1.096,4.4-1.096
				c2.118,0,3.679,0.651,4.639,1.933c0.982,1.314,1.481,3.404,1.481,6.213v18.252l0.38-0.043c0.353-0.039,0.662-0.069,0.926-0.088
				c0.274-0.02,0.501-0.04,0.684-0.061c0.17-0.019,0.434-0.027,0.794-0.027c0.339,0,0.589,0.008,0.75,0.027
				c0.172,0.021,0.396,0.041,0.671,0.061c0.266,0.019,0.593,0.049,0.988,0.09l0.377,0.037V277.55c0-2.773,0.468-5.101,1.391-6.919
				c0.898-1.768,2.619-2.627,5.264-2.627c1.79,0,3.166,0.421,4.091,1.252c0.933,0.842,1.565,1.965,1.875,3.336
				c0.321,1.415,0.482,3.163,0.482,5.196v16.614l0.38-0.043c0.355-0.039,0.699-0.073,1.036-0.103l0.674-0.06
				c0.103-0.011,0.335-0.013,0.696-0.013c0.321,0,0.565,0.008,0.736,0.027c0.182,0.021,0.409,0.041,0.683,0.061
				c0.266,0.019,0.593,0.049,0.988,0.09l0.377,0.037v-18.009c0-4.027-0.77-7.097-2.287-9.124
				C285.716,265.206,283.063,264.162,279.373,264.162z"/>
			<path d="M324.584,273.046c-0.547-1.683-1.396-3.23-2.491-4.585c-1.108-1.369-2.463-2.436-4.023-3.175
				c-1.56-0.753-3.339-1.122-5.283-1.122c-3.271,0-5.638,0.643-7.034,1.902c-1.136,1.026-2.149,2.313-3.052,3.846v-5.419
				l-0.356,0.027c-0.561,0.041-1.054,0.082-1.464,0.123c-0.808,0.082-1.19,0.068-1.971,0c-0.411-0.041-0.89-0.082-1.41-0.123
				l-0.37-0.027v41.877h5.57v-16.642c2.135,3.408,5.214,5.146,9.169,5.146c4.037,0,7.336-1.505,9.812-4.448
				c2.463-2.929,3.723-6.952,3.723-11.961C325.405,276.563,325.131,274.729,324.584,273.046z M318.521,285.376
				c-0.548,1.902-1.423,3.435-2.614,4.571c-1.177,1.108-2.71,1.67-4.584,1.67c-2.874,0-4.982-1.013-6.432-3.107
				c-1.45-2.108-2.189-4.886-2.189-8.28c0-2.094,0.274-4.188,0.821-6.241c0.52-2.025,1.437-3.736,2.724-5.077
				c1.259-1.314,2.942-1.984,5.022-1.984c1.943,0,3.544,0.547,4.735,1.615c1.204,1.081,2.066,2.518,2.573,4.27
				c0.52,1.793,0.78,3.777,0.78,5.898C319.356,281.202,319.069,283.447,318.521,285.376z"/>
			<path d="M357.675,271.362c-1.218-2.299-2.942-4.106-5.118-5.337c-2.19-1.232-4.721-1.861-7.541-1.861
				c-2.258,0-4.352,0.356-6.24,1.068c-1.889,0.698-3.586,1.738-5.05,3.093c-1.45,1.341-2.586,2.956-3.367,4.79
				c-0.78,1.834-1.177,3.873-1.177,6.076c0,3.161,0.657,5.967,1.944,8.335c1.3,2.381,3.093,4.215,5.351,5.474
				c2.245,1.232,4.749,1.875,7.431,1.875c2.436,0,4.667-0.424,6.61-1.245c1.957-0.821,3.627-1.971,4.954-3.449
				c1.341-1.464,2.354-3.148,3.024-5.009c0.671-1.861,0.999-3.805,0.999-5.775C359.495,276.358,358.88,273.648,357.675,271.362z
				 M352.516,284.938c-0.616,2.026-1.628,3.791-2.997,5.242c-1.355,1.41-3.079,2.121-5.132,2.121c-2.094,0-3.846-0.575-5.201-1.711
				c-1.382-1.136-2.395-2.641-3.011-4.448c-0.629-1.834-0.944-3.859-0.944-6.022c0-2.299,0.315-4.503,0.944-6.542
				c0.629-2.012,1.67-3.681,3.12-4.954c1.423-1.259,3.325-1.902,5.652-1.902c1.533,0,2.86,0.37,3.955,1.095
				c1.095,0.725,1.998,1.697,2.655,2.888c0.684,1.204,1.163,2.545,1.451,3.955c0.301,1.437,0.452,2.929,0.452,4.42
				C353.46,280.915,353.146,282.872,352.516,284.938z"/>
			<path d="M389.083,271.964c-0.698-1.765-1.628-3.23-2.792-4.352c-1.163-1.136-2.532-1.998-4.078-2.587
				c-1.546-0.575-3.175-0.862-4.858-0.862c-2.984,0-5.597,0.671-7.76,1.998c-2.162,1.327-3.818,3.189-4.913,5.515
				c-1.081,2.299-1.642,4.941-1.642,7.842c0,3.12,0.629,5.871,1.861,8.17c1.232,2.313,2.997,4.106,5.228,5.337
				c2.231,1.218,4.79,1.847,7.636,1.847c1.793,0,3.641-0.328,5.461-0.985c1.82-0.643,3.572-1.546,5.214-2.682l0.151-0.11
				l0.068-4.188l-0.589,0.575c-2.846,2.751-5.789,4.133-8.786,4.133c-1.574,0-3.024-0.287-4.311-0.849
				c-1.287-0.561-2.395-1.355-3.271-2.381c-0.889-1.026-1.56-2.217-1.998-3.544c-0.452-1.341-0.671-2.778-0.671-4.284
				c0-0.383,0-0.698,0.027-0.944h8.293c4.065,0,8.225,0.068,12.344,0.178l0.328,0.014l0.027-0.328
				c0.014-0.233,0.041-0.452,0.041-0.643c0.013-0.191,0.013-0.438,0.013-0.725C390.109,275.783,389.767,273.703,389.083,271.964z
				 M369.116,276.672c0.15-1.656,0.52-3.23,1.122-4.708c0.643-1.574,1.56-2.846,2.751-3.818c1.177-0.944,2.641-1.423,4.352-1.423
				c2.628,0,4.42,0.917,5.502,2.792c1.053,1.848,1.642,4.256,1.752,7.157H369.116z"/>
			<path d="M409.489,264.162c-2.696,0-5.255,1.791-7.639,5.373v-5.04l-0.366,0.027c-0.561,0.04-1.045,0.079-1.454,0.119
				c-0.394,0.039-0.715,0.057-0.965,0.057c-0.269,0-0.605-0.019-1.009-0.057c-0.42-0.04-0.887-0.079-1.406-0.119l-0.369-0.029
				v29.909l0.381-0.043c0.353-0.039,0.698-0.073,1.034-0.103l0.672-0.06c0.104-0.011,0.337-0.013,0.696-0.013
				c0.322,0,0.567,0.008,0.736,0.027c0.182,0.021,0.409,0.041,0.684,0.061c0.266,0.019,0.593,0.049,0.988,0.09l0.377,0.037v-16.163
				c0-1.871,0.127-3.341,0.377-4.372c0.243-1.004,0.841-2.064,1.771-3.146c0.413-0.468,0.958-0.826,1.617-1.065
				c0.672-0.243,1.354-0.366,2.027-0.366c0.384,0,0.886,0.144,1.493,0.429c1.008,0.474,1.244,0.528,1.322,0.545l0.354,0.079
				l0.936-5.744l-0.245-0.106C411,264.272,410.324,264.162,409.489,264.162z"/>
			<path d="M431.498,264.162c-4.009,0-7.185,1.704-9.457,5.068v-4.735l-0.366,0.027c-0.56,0.04-1.044,0.079-1.453,0.119
				c-0.394,0.039-0.715,0.057-0.965,0.057c-0.269,0-0.605-0.019-1.009-0.057c-0.42-0.04-0.887-0.079-1.406-0.119l-0.369-0.029
				v29.909l0.381-0.043c0.353-0.039,0.698-0.073,1.034-0.103l0.672-0.06c0.104-0.011,0.337-0.013,0.696-0.013
				c0.322,0,0.567,0.008,0.736,0.027c0.182,0.021,0.409,0.041,0.684,0.061c0.265,0.019,0.593,0.049,0.986,0.09l0.377,0.037v-14.525
				c0-4.009,0.571-7.038,1.697-9.004c1.107-1.929,3.05-2.865,5.943-2.865c1.693,0,3.024,0.408,3.96,1.214
				c0.942,0.811,1.592,1.929,1.931,3.32c0.35,1.439,0.527,3.206,0.527,5.251v16.614l0.381-0.043c0.35-0.039,0.659-0.069,0.925-0.088
				c0.273-0.02,0.501-0.04,0.682-0.061c0.171-0.019,0.437-0.027,0.797-0.027c0.339,0,0.588,0.008,0.75,0.027
				c0.172,0.021,0.394,0.041,0.671,0.061c0.266,0.019,0.593,0.049,0.988,0.09l0.377,0.037v-18.009c0-4.148-0.791-7.25-2.352-9.222
				C437.735,265.173,435.105,264.162,431.498,264.162z"/>
			<path d="M474.576,291.357c-1.478,0.356-2.272,0.342-2.6,0.014c-0.191-0.192-0.301-0.438-0.328-0.739
				c-0.055-0.383-0.082-0.958-0.082-1.738v-14.137c0-3.504-0.876-6.158-2.614-7.924c-1.738-1.779-4.297-2.669-7.609-2.669
				c-3.339,0-6.706,1.15-10.018,3.421l-0.15,0.11v3.914h1.273l0.082-0.233c0.151-0.506,0.534-1.068,1.109-1.67
				c0.575-0.616,1.382-1.163,2.395-1.615c0.999-0.452,2.149-0.684,3.435-0.684c2.162,0,3.846,0.589,5.009,1.765
				c1.177,1.163,1.765,2.86,1.765,5.036c0,0.889-0.178,1.546-0.507,1.971c-0.342,0.411-0.889,0.739-1.628,0.958
				c-0.808,0.233-2.162,0.507-4.037,0.821c-2.518,0.397-4.544,0.835-6.035,1.3c-1.546,0.493-2.874,1.355-3.928,2.6
				c-1.068,1.246-1.615,2.997-1.615,5.214c0,2.286,0.848,4.174,2.518,5.625c1.643,1.437,3.654,2.176,5.953,2.176
				c3.531,0,6.651-1.327,9.265-3.955l0.068-0.068c0.246,1.054,0.712,1.848,1.41,2.354c0.807,0.602,1.875,0.931,3.161,0.972
				c0.657,0,1.327-0.055,1.998-0.178c0.561-0.11,1.218-0.328,1.93-0.657l0.205-0.082v-1.998L474.576,291.357z M465.995,287.716
				c0,0.027-0.055,0.123-0.233,0.356c-0.191,0.26-0.411,0.493-0.629,0.698c-0.246,0.219-0.465,0.424-0.671,0.629
				c-0.561,0.561-1.314,1.081-2.231,1.547c-0.903,0.452-1.711,0.671-2.409,0.671c-1.807,0-3.216-0.452-4.188-1.355
				c-0.972-0.89-1.464-2.245-1.464-4.051c0-1.218,0.315-2.244,0.917-3.038c0.616-0.794,1.41-1.41,2.34-1.82
				c0.958-0.438,2.012-0.766,3.12-1.013c1.149-0.246,2.408-0.493,3.722-0.725l1.724-0.37V287.716z"/>
		</g>
		<g>
			<path style="fill:#A9AAAC;" d="M319.513,225.459c0-1.425-1.014-2.312-2.471-2.312c-1.394,0-2.851,1.013-3.865,2.883
				c-1.14,2.122-1.203,4.593-1.425,7.476c-0.254,3.167-0.539,5.796-2.122,8.11c-1.521,2.249-4.055,3.516-7.002,3.516
				c-4.15,0-6.748-2.376-6.748-5.544c0-1.775,0.825-2.883,1.997-2.883c0.76,0,1.235,0.507,1.235,1.204
				c0,0.601-0.444,1.045-1.013,1.045c-0.222,0-0.444-0.032-0.698-0.19c-0.412,0.38-0.539,0.854-0.539,1.552
				c0,2.756,2.217,4.561,5.481,4.561c2.724,0,5.005-1.457,6.24-4.15c1.109-2.439,1.109-5.671,1.553-9.504
				c0.317-2.661,0.918-4.624,2.376-6.177c1.362-1.457,3.103-2.217,4.941-2.217c2.281,0,3.77,1.172,3.77,2.629
				c0,0.698-0.381,1.299-1.109,1.775c-0.347,0.221-0.696,0.38-1.108,0.38c-0.064,0-0.159-0.032-0.254-0.032
				C319.259,226.885,319.513,226.22,319.513,225.459z"/>
			<path style="fill:#A9AAAC;" d="M325.782,234.14l2.154-0.095c-4.182,5.574-5.987,9.187-5.987,9.883
				c0,0.444,0.285,0.698,0.76,0.698c1.521,0,4.656-2.693,8.87-8.332l0.19,0.158c-4.213,5.798-7.539,8.553-9.377,8.553
				c-0.982,0-1.711-0.666-1.711-1.584c0-0.571,0.285-1.267,0.855-2.092l-0.095-0.095c-1.995,2.535-4.214,3.643-5.544,3.643
				c-1.204,0-2.027-0.886-2.027-2.376c0-1.33,1.013-3.642,2.978-5.669c1.9-1.965,4.118-2.978,5.639-2.978
				c1.172,0,1.965,0.728,2.186,2.09L325.782,234.14z M322.456,234.076c-0.918,0-2.946,1.204-4.719,3.675
				c-1.331,1.868-1.965,3.801-1.965,5.005c0,0.95,0.444,1.457,1.172,1.457c0.76,0,2.059-0.696,3.484-2.217
				c2.186-2.376,3.296-4.624,3.296-6.304C323.724,234.646,323.216,234.076,322.456,234.076z"/>
			<path style="fill:#A9AAAC;" d="M333.952,235.629c-0.19,0.285-1.14,1.489-2.819,3.738l0.158,0.063
				c2.852-3.896,5.323-5.828,7.508-5.828c1.14,0,1.933,0.728,1.933,1.616c0,1.394-1.299,2.661-2.82,4.846
				c-1.267,1.806-2.027,2.947-2.027,3.707c0,0.442,0.286,0.696,0.855,0.696c1.521,0,4.91-2.566,9.029-8.205l0.222,0.158
				c-4.119,5.671-7.476,8.428-9.568,8.428c-1.172,0-1.868-0.73-1.868-1.87c0-1.362,1.172-2.883,2.915-5.227
				c1.172-1.584,1.806-2.566,1.806-3.073c0-0.381-0.349-0.728-0.76-0.728c-2.219,0-6.399,3.516-10.106,10.579l-2.249,0.159
				l13.812-21.224l2.312-0.032L333.952,235.629z"/>
			<path style="fill:#A9AAAC;" d="M354.035,234.14l2.154-0.095c-4.182,5.574-5.987,9.187-5.987,9.883
				c0,0.444,0.285,0.698,0.76,0.698c1.521,0,4.656-2.693,8.87-8.332l0.19,0.158c-4.213,5.798-7.539,8.553-9.377,8.553
				c-0.982,0-1.711-0.666-1.711-1.584c0-0.571,0.285-1.267,0.855-2.092l-0.095-0.095c-1.995,2.535-4.214,3.643-5.544,3.643
				c-1.204,0-2.027-0.886-2.027-2.376c0-1.33,1.013-3.642,2.978-5.669c1.9-1.965,4.118-2.978,5.639-2.978
				c1.172,0,1.965,0.728,2.186,2.09L354.035,234.14z M350.708,234.076c-0.918,0-2.946,1.204-4.719,3.675
				c-1.331,1.868-1.965,3.801-1.965,5.005c0,0.95,0.444,1.457,1.172,1.457c0.76,0,2.06-0.696,3.484-2.217
				c2.186-2.376,3.296-4.624,3.296-6.304C351.977,234.646,351.469,234.076,350.708,234.076z"/>
			<path style="fill:#A9AAAC;" d="M360.463,238.227c-1.394,2.153-2.217,3.706-2.217,4.941c0,0.982,0.38,1.426,1.33,1.426
				c1.045,0,3.264-1.299,4.91-3.706c1.394-1.997,2.186-3.58,2.281-5.005c-0.191-0.508-0.317-0.952-0.317-1.331
				c0-0.444,0.38-0.823,0.791-0.823c0.698,0,1.299,0.791,1.299,2.058c0,0.508-0.158,0.919-0.158,1.268
				c0,0.569,0.823,1.33,2.122,1.33c1.203,0,2.344-0.633,3.294-1.9l0.19,0.127c-1.013,1.33-2.154,1.995-3.579,1.995
				c-0.919,0-1.585-0.349-2.154-1.077c-0.728,1.806-1.743,3.232-3.073,4.404c-2.281,1.963-4.372,2.946-5.987,2.946
				c-1.68,0-2.566-0.855-2.566-2.439c0-1.394,0.855-2.534,1.773-3.96l9.693-14.952l2.249-0.095
				C368.446,225.998,365.214,230.94,360.463,238.227z"/>
			<path style="fill:#A9AAAC;" d="M382.159,234.14l2.154-0.095c-4.182,5.574-5.987,9.187-5.987,9.883
				c0,0.444,0.285,0.698,0.76,0.698c1.521,0,4.656-2.693,8.87-8.332l0.19,0.158c-4.213,5.798-7.539,8.553-9.377,8.553
				c-0.982,0-1.711-0.666-1.711-1.584c0-0.571,0.285-1.267,0.855-2.092l-0.095-0.095c-1.995,2.535-4.214,3.643-5.544,3.643
				c-1.204,0-2.027-0.886-2.027-2.376c0-1.33,1.013-3.642,2.978-5.669c1.9-1.965,4.118-2.978,5.639-2.978
				c1.172,0,1.965,0.728,2.186,2.09L382.159,234.14z M378.833,234.076c-0.918,0-2.946,1.204-4.719,3.675
				c-1.331,1.868-1.965,3.801-1.965,5.005c0,0.95,0.444,1.457,1.172,1.457c0.76,0,2.059-0.696,3.484-2.217
				c2.186-2.376,3.296-4.624,3.296-6.304C380.101,234.646,379.593,234.076,378.833,234.076z"/>
			<path style="fill:#A9AAAC;" d="M391.25,234.298h4.118l-0.222,0.349h-4.15l-3.991,6.272c-0.698,1.109-1.046,2.122-1.046,2.725
				c0,0.666,0.349,0.95,1.141,0.95c1.584,0,5.701-2.408,9.661-8.142l0.222,0.127c-4.023,5.703-8.046,8.364-10.327,8.364
				c-1.236,0-2.122-0.919-2.122-2.154c0-0.666,0.222-1.426,0.696-2.154l3.802-5.987h-1.806l0.253-0.349h1.743l2.407-3.738
				l1.997-0.095L391.25,234.298z"/>
		</g>
	</g>
	<g>
		
			<linearGradient id="SVGID_1_" gradientUnits="userSpaceOnUse" x1="5192.2139" y1="224.8244" x2="5201.6416" y2="236.0768" gradientTransform="matrix(-1 0 0 1 5229.5044 0)">
			<stop  offset="0" style="stop-color:#F7E349"/>
			<stop  offset="1" style="stop-color:#A3822E"/>
		</linearGradient>
		<path style="fill:url(#SVGID_1_);stroke:#A3822E;stroke-width:0.3;stroke-miterlimit:10;" d="M36.988,216.141
			c0,0-2.556-5.892-3.924-6.418c-1.369-0.526-4.308,18.076-2.838,22.08c0,0,7.625,5.999,8.881,11.211l4.551-5.787l3.041-10.864
			L36.988,216.141z"/>
		<path style="fill:none;stroke:#A3822E;stroke-width:0.1;stroke-miterlimit:10;" d="M38.565,236.129c0,0-4.235-8.837-4.539-20.393"
			/>
		
			<linearGradient id="SVGID_00000080893496235790723260000001898862318720297878_" gradientUnits="userSpaceOnUse" x1="146.2332" y1="224.8244" x2="155.6609" y2="236.0768">
			<stop  offset="0" style="stop-color:#F7E349"/>
			<stop  offset="1" style="stop-color:#A3822E"/>
		</linearGradient>
		
			<path style="fill:url(#SVGID_00000080893496235790723260000001898862318720297878_);stroke:#A3822E;stroke-width:0.3;stroke-miterlimit:10;" d="
			M146.536,216.141c0,0,2.556-5.892,3.924-6.418c1.369-0.526,4.308,18.076,2.838,22.08c0,0-7.625,5.999-8.881,11.211l-4.551-5.787
			l-3.041-10.864L146.536,216.141z"/>
		<path style="fill:none;stroke:#A3822E;stroke-width:0.1;stroke-miterlimit:10;" d="M144.959,236.129c0,0,4.235-8.837,4.539-20.393
			"/>
		
			<linearGradient id="SVGID_00000127035516237013971940000000961789485347077766_" gradientUnits="userSpaceOnUse" x1="5179.8755" y1="208.6533" x2="5191.1279" y2="209.4136" gradientTransform="matrix(-1 0 0 1 5229.5044 0)">
			<stop  offset="0" style="stop-color:#F7E349"/>
			<stop  offset="1" style="stop-color:#A3822E"/>
		</linearGradient>
		
			<path style="fill:url(#SVGID_00000127035516237013971940000000961789485347077766_);stroke:#A3822E;stroke-width:0.3;stroke-miterlimit:10;" d="
			M52.105,201.797c0,0-3.278-6.539-4.9-6.539c-1.622,0-5.474,11.252-3.7,16.777s4.264,6.157,3.653,9.567
			c-0.611,3.409,9.881-5.917,9.982-6.677c0.101-0.76-0.608-8.923-0.608-8.923L52.105,201.797z"/>
		
			<linearGradient id="SVGID_00000128444098179277077310000014808345799805169804_" gradientUnits="userSpaceOnUse" x1="5166.0298" y1="198.9217" x2="5173.7847" y2="215.3442" gradientTransform="matrix(-1 0 0 1 5229.5044 0)">
			<stop  offset="0" style="stop-color:#F7E349"/>
			<stop  offset="1" style="stop-color:#A3822E"/>
		</linearGradient>
		
			<path style="fill:url(#SVGID_00000128444098179277077310000014808345799805169804_);stroke:#A3822E;stroke-width:0.3;stroke-miterlimit:10;" d="
			M60.31,188.213c0,0-11.315,2.701-7.37,26.01s12.258-3.302,12.258-3.302s12.215-9.732,7.856-12.063S60.31,188.213,60.31,188.213z"
			/>
		
			<linearGradient id="SVGID_00000060710375733895447380000006804101807412905633_" gradientUnits="userSpaceOnUse" x1="5157.9194" y1="204.4699" x2="5182.5532" y2="204.4699" gradientTransform="matrix(-1 0 0 1 5229.5044 0)">
			<stop  offset="0" style="stop-color:#F7E349"/>
			<stop  offset="1" style="stop-color:#A3822E"/>
		</linearGradient>
		
			<path style="fill:url(#SVGID_00000060710375733895447380000006804101807412905633_);stroke:#A3822E;stroke-width:0.3;stroke-miterlimit:10;" d="
			M52.94,214.223c0,0,3.789-18.511,12.813-19.447s10.545,9.723,10.545,9.723l-19.15,7.283L52.94,214.223z"/>
		
			<linearGradient id="SVGID_00000165926399919928033930000006158086973738542246_" gradientUnits="userSpaceOnUse" x1="5192.5391" y1="295.1924" x2="5171.8589" y2="298.3857" gradientTransform="matrix(-1 0 0 1 5229.5044 0)">
			<stop  offset="0" style="stop-color:#F7E349"/>
			<stop  offset="1" style="stop-color:#A3822E"/>
		</linearGradient>
		
			<path style="fill:url(#SVGID_00000165926399919928033930000006158086973738542246_);stroke:#A3822E;stroke-width:0.3;stroke-miterlimit:10;" d="
			M44.848,296.649l-6.283,2.068c0,0,4.965,5.069,9.223,4.001s9.58-6.815,9.58-6.815s0.496-3.648-0.076-3.833
			s-12.166,2.585-12.166,2.585L44.848,296.649z"/>
		
			<linearGradient id="SVGID_00000000921853474631426930000001164080791908301730_" gradientUnits="userSpaceOnUse" x1="5183.7896" y1="283.6235" x2="5187.7432" y2="301.2625" gradientTransform="matrix(-1 0 0 1 5229.5044 0)">
			<stop  offset="0" style="stop-color:#F7E349"/>
			<stop  offset="1" style="stop-color:#A3822E"/>
		</linearGradient>
		
			<path style="fill:url(#SVGID_00000000921853474631426930000001164080791908301730_);stroke:#A3822E;stroke-width:0.3;stroke-miterlimit:10;" d="
			M37.75,282.465l-8.057,0.156c0,0,6.306,10.712,13.913,13.327c0,0,3.279,2.781,9.432,0.402c6.154-2.379,7.52-6.461,7.52-6.461
			L49.46,279.449c0,0-6.817,0.766-7.324,0.839S37.75,282.465,37.75,282.465z"/>
		
			<linearGradient id="SVGID_00000134971279639895511150000011372115812364823450_" gradientUnits="userSpaceOnUse" x1="5191.5767" y1="271.528" x2="5198.1152" y2="282.7804" gradientTransform="matrix(-1 0 0 1 5229.5044 0)">
			<stop  offset="0" style="stop-color:#F7E349"/>
			<stop  offset="1" style="stop-color:#A3822E"/>
		</linearGradient>
		
			<path style="fill:url(#SVGID_00000134971279639895511150000011372115812364823450_);stroke:#A3822E;stroke-width:0.3;stroke-miterlimit:10;" d="
			M45.374,283.696c0,0-10.283,0.847-15.073-7.516s-4.03-11.633-4.03-11.633s-0.377-1.593,5.644,2.637l14.048,1.012
			c0,0,0.71,4.053,0.735,5.79c0.025,1.737,1.09,7.135,1.09,7.667C47.788,282.186,45.374,283.696,45.374,283.696z"/>
		
			<linearGradient id="SVGID_00000132084847102543461670000017137062541364547731_" gradientUnits="userSpaceOnUse" x1="5184.79" y1="276.8089" x2="5166.8467" y2="295.3603" gradientTransform="matrix(-1 0 0 1 5229.5044 0)">
			<stop  offset="0" style="stop-color:#F7E349"/>
			<stop  offset="1" style="stop-color:#A3822E"/>
		</linearGradient>
		
			<path style="fill:url(#SVGID_00000132084847102543461670000017137062541364547731_);stroke:#A3822E;stroke-width:0.3;stroke-miterlimit:10;" d="
			M55.268,293.645c0,0-6.644-3.248-10.445-11.003s-2.686-10.108-2.686-10.108l4.767-0.938c0,0,2.786,2.987,3.926,5.8
			s5.94,8.972,7.076,9.96c1.136,0.988,1.212,4.172,1.212,4.172L55.268,293.645z"/>
		
			<linearGradient id="SVGID_00000071543916366514231240000018068362631023143302_" gradientUnits="userSpaceOnUse" x1="5193.29" y1="255.5279" x2="5202.7178" y2="276.8163" gradientTransform="matrix(-1 0 0 1 5229.5044 0)">
			<stop  offset="0" style="stop-color:#F7E349"/>
			<stop  offset="1" style="stop-color:#A3822E"/>
		</linearGradient>
		
			<path style="fill:url(#SVGID_00000071543916366514231240000018068362631023143302_);stroke:#A3822E;stroke-width:0.3;stroke-miterlimit:10;" d="
			M30.892,249.945c0,0-4.164-2.733-5.837-2.733c0,0-0.702,7.147,2.918,14.066c3.62,6.919,7.642,10.53,15.363,11.423
			c0,0,6.124-11.119,2.323-14.617C41.857,254.587,30.892,249.945,30.892,249.945z"/>
		
			<linearGradient id="SVGID_00000157276259551940408370000005854837498532414388_" gradientUnits="userSpaceOnUse" x1="5192.3438" y1="238.945" x2="5206.4854" y2="256.2798" gradientTransform="matrix(-1 0 0 1 5229.5044 0)">
			<stop  offset="0" style="stop-color:#F7E349"/>
			<stop  offset="1" style="stop-color:#A3822E"/>
		</linearGradient>
		
			<path style="fill:url(#SVGID_00000157276259551940408370000005854837498532414388_);stroke:#A3822E;stroke-width:0.3;stroke-miterlimit:10;" d="
			M39.106,243.014c0,0,0.141-5.584-10.604-12.985c0,0-5.88,16.422,7.552,24.431l2.818,1.917l3.264-7.377L39.106,243.014z"/>
		
			<linearGradient id="SVGID_00000137813368891682479070000007552728242967659922_" gradientUnits="userSpaceOnUse" x1="5184.2266" y1="216.5914" x2="5197.1514" y2="218.4161" gradientTransform="matrix(-1 0 0 1 5229.5044 0)">
			<stop  offset="0" style="stop-color:#F7E349"/>
			<stop  offset="1" style="stop-color:#A3822E"/>
		</linearGradient>
		
			<path style="fill:url(#SVGID_00000137813368891682479070000007552728242967659922_);stroke:#A3822E;stroke-width:0.3;stroke-miterlimit:10;" d="
			M47.661,221.362c0,0-0.096-10.289-9.096-14.192c0,0-6.015,11.91,5.444,19.97C44.009,227.14,48.067,224.392,47.661,221.362z"/>
		<path style="fill:none;stroke:#A3822E;stroke-width:0.1;stroke-miterlimit:10;" d="M51.278,292.809
			c-0.515,0.132-4.628-0.575-10.53-3.645c-1.864-0.969-3.906-2.175-6.069-3.663"/>
		<path style="fill:none;stroke:#A3822E;stroke-width:0.1;stroke-miterlimit:10;" d="M41.021,279.449c0,0-7.907-5.018-11.328-11.252
			"/>
		<path style="fill:none;stroke:#A3822E;stroke-width:0.1;stroke-miterlimit:10;" d="M38.261,265.307c0,0-8.124-5.023-12.034-14.676
			"/>
		<path style="fill:none;stroke:#A3822E;stroke-width:0.1;stroke-miterlimit:10;" d="M36.988,249.001c0,0-5.698-4.982-7.295-15.322"
			/>
		
			<line style="fill:none;stroke:#A3822E;stroke-width:0.1;stroke-miterlimit:10;" x1="43.048" y1="222.521" x2="39.5" y2="209.723"/>
		
			<linearGradient id="SVGID_00000092437180782674960730000010105425795052904344_" gradientUnits="userSpaceOnUse" x1="133.8947" y1="208.6533" x2="145.1471" y2="209.4136">
			<stop  offset="0" style="stop-color:#F7E349"/>
			<stop  offset="1" style="stop-color:#A3822E"/>
		</linearGradient>
		
			<path style="fill:url(#SVGID_00000092437180782674960730000010105425795052904344_);stroke:#A3822E;stroke-width:0.3;stroke-miterlimit:10;" d="
			M131.419,201.797c0,0,3.278-6.539,4.9-6.539c1.622,0,5.474,11.252,3.7,16.777s-4.264,6.157-3.653,9.567
			c0.611,3.409-9.881-5.917-9.982-6.677c-0.101-0.76,0.608-8.923,0.608-8.923L131.419,201.797z"/>
		
			<linearGradient id="SVGID_00000102503639620506210920000003512675845934480555_" gradientUnits="userSpaceOnUse" x1="120.049" y1="198.9217" x2="127.8041" y2="215.3442">
			<stop  offset="0" style="stop-color:#F7E349"/>
			<stop  offset="1" style="stop-color:#A3822E"/>
		</linearGradient>
		
			<path style="fill:url(#SVGID_00000102503639620506210920000003512675845934480555_);stroke:#A3822E;stroke-width:0.3;stroke-miterlimit:10;" d="
			M123.214,188.213c0,0,11.315,2.701,7.37,26.01c-3.946,23.309-12.258-3.302-12.258-3.302s-12.215-9.732-7.856-12.063
			C114.828,196.526,123.214,188.213,123.214,188.213z"/>
		
			<linearGradient id="SVGID_00000182530161057476757840000004117151757534794912_" gradientUnits="userSpaceOnUse" x1="111.9387" y1="204.4699" x2="136.5724" y2="204.4699">
			<stop  offset="0" style="stop-color:#F7E349"/>
			<stop  offset="1" style="stop-color:#A3822E"/>
		</linearGradient>
		
			<path style="fill:url(#SVGID_00000182530161057476757840000004117151757534794912_);stroke:#A3822E;stroke-width:0.3;stroke-miterlimit:10;" d="
			M130.584,214.223c0,0-3.789-18.511-12.813-19.447s-10.545,9.723-10.545,9.723l19.15,7.283L130.584,214.223z"/>
		
			<linearGradient id="SVGID_00000078012488999373010360000008306392201168159159_" gradientUnits="userSpaceOnUse" x1="146.5583" y1="295.1924" x2="125.8781" y2="298.3857">
			<stop  offset="0" style="stop-color:#F7E349"/>
			<stop  offset="1" style="stop-color:#A3822E"/>
		</linearGradient>
		
			<path style="fill:url(#SVGID_00000078012488999373010360000008306392201168159159_);stroke:#A3822E;stroke-width:0.3;stroke-miterlimit:10;" d="
			M138.675,296.649l6.283,2.068c0,0-4.965,5.069-9.223,4.001c-4.258-1.068-9.58-6.815-9.58-6.815s-0.496-3.648,0.076-3.833
			c0.572-0.185,12.166,2.585,12.166,2.585L138.675,296.649z"/>
		
			<linearGradient id="SVGID_00000136406137876742047670000011127478411097247919_" gradientUnits="userSpaceOnUse" x1="137.8088" y1="283.6235" x2="141.7623" y2="301.2625">
			<stop  offset="0" style="stop-color:#F7E349"/>
			<stop  offset="1" style="stop-color:#A3822E"/>
		</linearGradient>
		
			<path style="fill:url(#SVGID_00000136406137876742047670000011127478411097247919_);stroke:#A3822E;stroke-width:0.3;stroke-miterlimit:10;" d="
			M145.774,282.465l8.057,0.156c0,0-6.306,10.712-13.913,13.327c0,0-3.279,2.781-9.432,0.402c-6.154-2.379-7.52-6.461-7.52-6.461
			l11.098-10.439c0,0,6.817,0.766,7.324,0.839S145.774,282.465,145.774,282.465z"/>
		
			<linearGradient id="SVGID_00000137838764968704578360000013700277951705917845_" gradientUnits="userSpaceOnUse" x1="145.596" y1="271.528" x2="152.1346" y2="282.7804">
			<stop  offset="0" style="stop-color:#F7E349"/>
			<stop  offset="1" style="stop-color:#A3822E"/>
		</linearGradient>
		
			<path style="fill:url(#SVGID_00000137838764968704578360000013700277951705917845_);stroke:#A3822E;stroke-width:0.3;stroke-miterlimit:10;" d="
			M138.15,283.696c0,0,10.283,0.847,15.073-7.516s4.03-11.633,4.03-11.633s0.377-1.593-5.644,2.637l-14.048,1.012
			c0,0-0.71,4.053-0.735,5.79c-0.025,1.737-1.09,7.135-1.09,7.667C135.736,282.186,138.15,283.696,138.15,283.696z"/>
		
			<linearGradient id="SVGID_00000166648382089464532290000012949183575721860014_" gradientUnits="userSpaceOnUse" x1="138.8093" y1="276.8089" x2="120.8662" y2="295.3603">
			<stop  offset="0" style="stop-color:#F7E349"/>
			<stop  offset="1" style="stop-color:#A3822E"/>
		</linearGradient>
		
			<path style="fill:url(#SVGID_00000166648382089464532290000012949183575721860014_);stroke:#A3822E;stroke-width:0.3;stroke-miterlimit:10;" d="
			M128.256,293.645c0,0,6.644-3.248,10.445-11.003s2.686-10.108,2.686-10.108l-4.767-0.938c0,0-2.786,2.987-3.926,5.8
			c-1.14,2.813-5.94,8.972-7.076,9.96c-1.136,0.988-1.212,4.172-1.212,4.172L128.256,293.645z"/>
		
			<linearGradient id="SVGID_00000134948713535532881460000000167700494625265061_" gradientUnits="userSpaceOnUse" x1="147.3094" y1="255.5279" x2="156.7371" y2="276.8163">
			<stop  offset="0" style="stop-color:#F7E349"/>
			<stop  offset="1" style="stop-color:#A3822E"/>
		</linearGradient>
		
			<path style="fill:url(#SVGID_00000134948713535532881460000000167700494625265061_);stroke:#A3822E;stroke-width:0.3;stroke-miterlimit:10;" d="
			M152.632,249.945c0,0,4.164-2.733,5.837-2.733c0,0,0.702,7.147-2.918,14.066c-3.62,6.919-7.642,10.53-15.363,11.423
			c0,0-6.124-11.119-2.323-14.617C141.666,254.587,152.632,249.945,152.632,249.945z"/>
		
			<linearGradient id="SVGID_00000015329466192459392910000005989988149987730362_" gradientUnits="userSpaceOnUse" x1="146.363" y1="238.945" x2="160.5046" y2="256.2798">
			<stop  offset="0" style="stop-color:#F7E349"/>
			<stop  offset="1" style="stop-color:#A3822E"/>
		</linearGradient>
		
			<path style="fill:url(#SVGID_00000015329466192459392910000005989988149987730362_);stroke:#A3822E;stroke-width:0.3;stroke-miterlimit:10;" d="
			M144.418,243.014c0,0-0.141-5.584,10.604-12.985c0,0,5.88,16.422-7.552,24.431l-2.818,1.917l-3.264-7.377L144.418,243.014z"/>
		
			<linearGradient id="SVGID_00000091015598560270507510000017984169344426667164_" gradientUnits="userSpaceOnUse" x1="138.2459" y1="216.5914" x2="151.171" y2="218.4161">
			<stop  offset="0" style="stop-color:#F7E349"/>
			<stop  offset="1" style="stop-color:#A3822E"/>
		</linearGradient>
		
			<path style="fill:url(#SVGID_00000091015598560270507510000017984169344426667164_);stroke:#A3822E;stroke-width:0.3;stroke-miterlimit:10;" d="
			M135.863,221.362c0,0,0.096-10.289,9.096-14.192c0,0,6.015,11.91-5.444,19.97C139.515,227.14,135.457,224.392,135.863,221.362z"/>
		<g>
			
				<linearGradient id="SVGID_00000047055049020533092000000005875785426733976466_" gradientUnits="userSpaceOnUse" x1="91.6615" y1="288.7905" x2="91.6615" y2="321.1134">
				<stop  offset="0" style="stop-color:#F7E349"/>
				<stop  offset="1" style="stop-color:#A3822E"/>
			</linearGradient>
			
				<path style="fill:url(#SVGID_00000047055049020533092000000005875785426733976466_);stroke:#A3822E;stroke-width:0.3;stroke-miterlimit:10;" d="
				M58.766,290.159c-0.527-0.241-12.165,15.177-12.165,15.177s14.319,15.777,46.492,15.777s43.628-17.2,43.628-17.2l-12.469-15.123
				C124.253,288.791,102.661,310.195,58.766,290.159z"/>
			<g>
				<path d="M58.615,304.128l0.118,0.081c-0.023,0.568,0.042,1.048,0.197,1.441c0.155,0.395,0.439,0.732,0.856,1.012
					c0.304,0.205,0.629,0.313,0.975,0.325c0.346,0.013,0.676-0.064,0.989-0.229c0.314-0.164,0.571-0.397,0.774-0.697
					c0.32-0.477,0.409-0.922,0.265-1.34c-0.145-0.416-0.437-0.943-0.878-1.581c-0.439-0.638-0.72-1.204-0.839-1.699
					c-0.119-0.495,0.018-1.033,0.41-1.614c0.478-0.709,1.088-1.092,1.83-1.148c0.742-0.055,1.482,0.165,2.22,0.664
					c0.3,0.202,0.569,0.45,0.805,0.743c0.236,0.292,0.392,0.598,0.466,0.916c-0.151,0.094-0.466,0.34-0.947,0.735l-0.113-0.076
					c0.094-0.389,0.076-0.758-0.056-1.106c-0.131-0.347-0.363-0.634-0.697-0.858c-0.267-0.181-0.547-0.288-0.844-0.325
					c-0.297-0.036-0.58,0.004-0.847,0.122c-0.268,0.117-0.489,0.306-0.666,0.569c-0.316,0.469-0.404,0.91-0.263,1.325
					c0.141,0.414,0.434,0.948,0.883,1.602c0.448,0.655,0.735,1.222,0.861,1.703c0.127,0.48,0.005,0.994-0.364,1.541
					c-0.273,0.405-0.592,0.721-0.955,0.948c-0.364,0.227-0.755,0.366-1.175,0.419c-0.42,0.053-0.84,0.023-1.261-0.09
					c-0.422-0.111-0.83-0.301-1.227-0.57c-0.309-0.208-0.611-0.5-0.91-0.879c-0.299-0.378-0.471-0.73-0.519-1.057
					C57.964,304.813,58.268,304.521,58.615,304.128z"/>
				<path d="M70.393,308.064l-1.417,2.894c-0.079,0.163-0.135,0.286-0.163,0.37c-0.028,0.083-0.031,0.161-0.005,0.234
					c0.024,0.073,0.09,0.135,0.195,0.187c0.09,0.044,0.22,0.085,0.393,0.124l-0.135,0.274c-0.174-0.005-0.322-0.024-0.441-0.058
					c-0.146-0.041-0.284-0.094-0.414-0.158c-0.243-0.129-0.415-0.291-0.515-0.483c-0.1-0.192-0.1-0.43-0.001-0.714l-0.167,0.061
					c-0.78,0.268-1.525,0.228-2.231-0.119c-0.456-0.223-0.776-0.556-0.965-1.001c-0.187-0.445-0.172-0.89,0.047-1.336
					c0.215-0.439,0.487-0.729,0.815-0.87c0.329-0.142,0.669-0.186,1.02-0.132c0.352,0.054,0.803,0.167,1.354,0.336
					c0.423,0.126,0.729,0.205,0.919,0.238c0.191,0.033,0.35,0.019,0.477-0.038c0.127-0.059,0.238-0.188,0.337-0.387
					c0.228-0.468,0.278-0.889,0.149-1.268c-0.129-0.378-0.425-0.68-0.889-0.907c-0.272-0.133-0.539-0.204-0.802-0.213
					c-0.264-0.008-0.491,0.023-0.68,0.094c-0.191,0.07-0.333,0.154-0.425,0.25l-0.14-0.069l0.341-0.694
					c0.894-0.131,1.677-0.032,2.347,0.297c0.662,0.324,1.079,0.744,1.252,1.262C70.821,306.757,70.737,307.365,70.393,308.064z
					 M68.093,310.23l0.892-1.822l-0.483-0.123c-0.3-0.087-0.578-0.161-0.834-0.224c-0.258-0.063-0.509-0.099-0.756-0.109
					c-0.246-0.01-0.479,0.04-0.7,0.149c-0.219,0.109-0.395,0.297-0.527,0.565c-0.191,0.389-0.228,0.735-0.111,1.038
					c0.117,0.301,0.37,0.547,0.76,0.738c0.155,0.076,0.354,0.113,0.596,0.11c0.243-0.001,0.455-0.033,0.637-0.096
					c0.06-0.021,0.126-0.041,0.197-0.061c0.07-0.021,0.14-0.049,0.21-0.082C68.043,310.278,68.083,310.251,68.093,310.23z"/>
				<path d="M71.5,313.417l1.777-6.4c0.11,0.04,0.209,0.077,0.296,0.11c0.087,0.033,0.164,0.059,0.229,0.077
					c0.06,0.017,0.136,0.033,0.225,0.049s0.196,0.036,0.322,0.061l-0.32,1.151c0.225-0.219,0.457-0.393,0.694-0.523
					c0.237-0.128,0.493-0.208,0.766-0.237c0.274-0.029,0.561-0.004,0.862,0.081c0.448,0.124,0.821,0.355,1.116,0.693
					c0.296,0.338,0.452,0.73,0.47,1.176c0.773-0.738,1.598-0.987,2.473-0.743c0.789,0.219,1.286,0.591,1.49,1.113
					c0.204,0.524,0.186,1.222-0.056,2.094l-1.074,3.871c-0.085-0.033-0.156-0.06-0.214-0.081s-0.105-0.038-0.144-0.054
					s-0.094-0.033-0.168-0.054c-0.083-0.023-0.137-0.037-0.161-0.041c-0.024-0.004-0.074-0.014-0.15-0.028
					c-0.077-0.014-0.155-0.027-0.236-0.04l0.989-3.563c0.126-0.454,0.196-0.849,0.213-1.188c0.017-0.338-0.056-0.635-0.22-0.892
					c-0.164-0.256-0.452-0.442-0.866-0.557c-0.606-0.168-1.071-0.076-1.394,0.278c-0.324,0.355-0.571,0.843-0.744,1.466
					l-1.004,3.616c-0.085-0.033-0.155-0.06-0.213-0.081s-0.105-0.038-0.141-0.053c-0.036-0.015-0.092-0.033-0.17-0.055
					c-0.083-0.023-0.145-0.037-0.186-0.044c-0.04-0.006-0.09-0.017-0.15-0.028s-0.131-0.024-0.211-0.037l1.088-3.923
					c0.177-0.635,0.193-1.136,0.051-1.503c-0.142-0.365-0.46-0.618-0.952-0.753c-0.441-0.123-0.801-0.131-1.081-0.026
					c-0.281,0.105-0.5,0.283-0.659,0.536c-0.159,0.251-0.291,0.562-0.393,0.933l-1.081,3.896c-0.085-0.033-0.156-0.059-0.213-0.081
					c-0.058-0.021-0.105-0.038-0.141-0.053c-0.036-0.014-0.092-0.033-0.172-0.055c-0.065-0.018-0.149-0.036-0.251-0.055
					C71.692,313.451,71.595,313.433,71.5,313.417z"/>
				<path d="M85.044,315.201l-0.351,4.764c-0.09-0.015-0.164-0.028-0.224-0.037c-0.062-0.009-0.11-0.017-0.149-0.024
					c-0.037-0.008-0.097-0.014-0.178-0.019c-0.086-0.006-0.15-0.009-0.191-0.008c-0.04,0.001-0.091,0.003-0.152,0.003
					c-0.062,0-0.133,0.001-0.215,0.004l0.747-10.169c0.117,0.018,0.223,0.035,0.316,0.05c0.095,0.017,0.173,0.027,0.236,0.031
					c0.059,0.005,0.135,0.006,0.228,0.004s0.202-0.004,0.331-0.004l-0.104,1.402l0.027,0.001c0.258-0.42,0.55-0.757,0.874-1.011
					c0.325-0.252,0.851-0.352,1.577-0.299c0.433,0.032,0.816,0.142,1.148,0.333c0.333,0.19,0.612,0.445,0.835,0.765
					c0.224,0.32,0.383,0.674,0.477,1.058c0.095,0.386,0.126,0.793,0.095,1.222c-0.083,1.122-0.424,1.991-1.022,2.605
					s-1.347,0.888-2.243,0.821c-0.948-0.069-1.626-0.566-2.033-1.489L85.044,315.201z M85.184,313.287
					c-0.058,0.789,0.065,1.443,0.37,1.962c0.304,0.519,0.794,0.803,1.471,0.853c0.447,0.033,0.821-0.074,1.122-0.322
					c0.302-0.249,0.533-0.591,0.694-1.028c0.161-0.437,0.264-0.944,0.306-1.522c0.036-0.492,0.009-0.949-0.079-1.373
					c-0.09-0.424-0.268-0.775-0.536-1.053c-0.268-0.278-0.633-0.434-1.098-0.468c-0.496-0.037-0.907,0.092-1.233,0.386
					s-0.568,0.674-0.726,1.14S85.22,312.804,85.184,313.287z"/>
				<path d="M91.838,313.418c-0.041-0.491,0.009-0.948,0.15-1.37c0.14-0.423,0.36-0.797,0.66-1.124s0.653-0.586,1.062-0.778
					c0.409-0.192,0.866-0.31,1.371-0.351c0.63-0.051,1.199,0.04,1.707,0.275c0.507,0.234,0.917,0.597,1.23,1.086
					s0.497,1.075,0.552,1.755c0.036,0.442-0.003,0.876-0.118,1.303c-0.114,0.427-0.307,0.816-0.578,1.167
					c-0.27,0.351-0.616,0.637-1.037,0.855c-0.419,0.218-0.902,0.35-1.448,0.395c-0.6,0.049-1.161-0.045-1.684-0.281
					c-0.524-0.236-0.951-0.607-1.283-1.113C92.091,314.732,91.896,314.126,91.838,313.418z M95.102,310.222
					c-0.55,0.046-0.983,0.232-1.298,0.56c-0.316,0.328-0.528,0.735-0.635,1.221c-0.108,0.487-0.14,0.996-0.096,1.529
					c0.042,0.501,0.152,0.958,0.334,1.372c0.182,0.415,0.446,0.744,0.793,0.988c0.346,0.245,0.767,0.346,1.263,0.306
					c0.492-0.041,0.884-0.243,1.179-0.609c0.295-0.365,0.495-0.792,0.6-1.279c0.105-0.488,0.141-0.944,0.106-1.368
					c-0.029-0.349-0.091-0.685-0.186-1.011c-0.095-0.327-0.233-0.624-0.414-0.893c-0.181-0.269-0.409-0.479-0.684-0.632
					C95.787,310.254,95.467,310.193,95.102,310.222z"/>
				<path d="M105.82,313.315l0.144,0.712c-0.306,0.332-0.644,0.612-1.012,0.842c-0.369,0.229-0.75,0.388-1.142,0.474
					c-0.623,0.138-1.207,0.127-1.751-0.033c-0.545-0.16-1.007-0.461-1.388-0.906c-0.381-0.443-0.647-1.008-0.798-1.693
					c-0.14-0.635-0.147-1.233-0.021-1.791c0.127-0.559,0.393-1.035,0.801-1.427c0.406-0.393,0.935-0.662,1.59-0.807
					c0.366-0.081,0.732-0.096,1.094-0.044c0.364,0.051,0.698,0.172,1.004,0.361c0.306,0.19,0.577,0.459,0.811,0.807
					c0.234,0.35,0.409,0.78,0.521,1.293c0.014,0.061,0.024,0.114,0.031,0.156c0.008,0.042,0.014,0.09,0.022,0.145
					c-0.925,0.176-1.844,0.365-2.758,0.568l-1.914,0.423c0.005,0.064,0.022,0.16,0.05,0.288c0.076,0.343,0.199,0.659,0.368,0.943
					s0.383,0.523,0.641,0.714c0.258,0.191,0.55,0.318,0.876,0.383c0.327,0.064,0.671,0.056,1.033-0.024
					C104.711,314.548,105.31,314.087,105.82,313.315z M100.943,311.892l3.604-0.797c-0.172-0.693-0.432-1.233-0.78-1.616
					c-0.348-0.384-0.826-0.509-1.435-0.375c-0.401,0.09-0.715,0.275-0.942,0.56c-0.225,0.283-0.373,0.623-0.441,1.017
					C100.881,311.076,100.88,311.479,100.943,311.892z"/>
				<path d="M108.516,313.983l-2.056-6.316c0.115-0.028,0.219-0.053,0.311-0.073c0.094-0.021,0.17-0.041,0.231-0.06
					c0.055-0.018,0.127-0.046,0.211-0.083c0.086-0.037,0.187-0.079,0.305-0.128l0.43,1.324l0.012-0.183
					c0.252-0.994,0.673-1.589,1.262-1.78c0.172-0.056,0.314-0.079,0.427-0.068l0.181,1.168c-0.041,0.004-0.144-0.005-0.307-0.026
					c-0.164-0.02-0.292-0.014-0.387,0.017c-0.155,0.05-0.301,0.128-0.438,0.234c-0.136,0.106-0.236,0.232-0.299,0.375
					c-0.131,0.314-0.187,0.594-0.168,0.843s0.096,0.579,0.231,0.992l1.112,3.42c-0.088,0.019-0.163,0.036-0.222,0.051
					c-0.06,0.014-0.11,0.026-0.15,0.035c-0.04,0.008-0.096,0.024-0.169,0.047c-0.082,0.027-0.135,0.045-0.158,0.055
					c-0.023,0.009-0.07,0.029-0.141,0.06C108.663,313.916,108.59,313.948,108.516,313.983z"/>
				<path d="M113.39,312.335l-2.629-6.1c0.111-0.037,0.213-0.072,0.304-0.101c0.09-0.029,0.165-0.056,0.223-0.081
					c0.054-0.024,0.122-0.058,0.204-0.103c0.081-0.045,0.178-0.097,0.291-0.155l0.502,1.165c0.113-1.029,0.619-1.737,1.516-2.124
					c0.735-0.316,1.348-0.343,1.839-0.079c0.491,0.264,0.92,0.824,1.289,1.68l1.59,3.689c-0.087,0.027-0.159,0.051-0.217,0.07
					c-0.058,0.02-0.106,0.036-0.142,0.047c-0.037,0.01-0.094,0.032-0.168,0.064c-0.079,0.035-0.137,0.061-0.172,0.082
					c-0.036,0.021-0.081,0.045-0.136,0.073c-0.054,0.028-0.117,0.063-0.188,0.104l-1.463-3.397
					c-0.188-0.436-0.386-0.792-0.593-1.066c-0.208-0.275-0.455-0.459-0.742-0.548c-0.288-0.091-0.619-0.055-0.993,0.106
					c-0.627,0.27-0.97,0.67-1.031,1.198c-0.06,0.528,0.095,1.221,0.464,2.076l1.275,2.96c-0.086,0.028-0.159,0.051-0.217,0.072
					c-0.058,0.019-0.106,0.036-0.145,0.047c-0.04,0.013-0.095,0.033-0.165,0.064c-0.079,0.033-0.129,0.056-0.151,0.069
					c-0.022,0.012-0.067,0.036-0.135,0.073C113.531,312.256,113.46,312.294,113.39,312.335z"/>
				<path d="M122.929,302.807l1.553,2.824c0.087,0.159,0.156,0.274,0.209,0.346s0.117,0.118,0.19,0.14
					c0.074,0.022,0.163,0.004,0.265-0.053c0.087-0.049,0.196-0.132,0.327-0.25l0.147,0.268c-0.104,0.14-0.204,0.249-0.3,0.327
					c-0.118,0.096-0.24,0.179-0.366,0.249c-0.246,0.126-0.477,0.173-0.692,0.143c-0.214-0.028-0.41-0.165-0.586-0.409l-0.045,0.172
					c-0.229,0.792-0.689,1.377-1.379,1.757c-0.445,0.245-0.902,0.315-1.373,0.214c-0.471-0.102-0.828-0.372-1.067-0.807
					c-0.236-0.428-0.316-0.817-0.243-1.167s0.233-0.653,0.479-0.91c0.246-0.258,0.597-0.562,1.053-0.916
					c0.346-0.273,0.587-0.478,0.723-0.615c0.136-0.136,0.217-0.274,0.242-0.411c0.024-0.137-0.015-0.304-0.123-0.497
					c-0.25-0.456-0.568-0.739-0.952-0.852c-0.383-0.111-0.802-0.042-1.253,0.206c-0.265,0.146-0.478,0.324-0.635,0.534
					c-0.158,0.211-0.263,0.415-0.314,0.611c-0.053,0.196-0.065,0.36-0.041,0.491l-0.136,0.074l-0.373-0.678
					c0.407-0.807,0.938-1.39,1.593-1.75c0.646-0.355,1.23-0.455,1.753-0.297C122.105,301.706,122.553,302.125,122.929,302.807z
					 M123.378,305.935l-0.976-1.778l-0.379,0.325c-0.243,0.195-0.465,0.381-0.664,0.553c-0.199,0.174-0.373,0.359-0.523,0.555
					c-0.15,0.196-0.245,0.416-0.281,0.659c-0.037,0.242,0.015,0.493,0.16,0.756c0.209,0.381,0.47,0.609,0.784,0.687
					c0.314,0.078,0.661,0.013,1.042-0.197c0.15-0.082,0.295-0.224,0.432-0.424c0.138-0.199,0.234-0.391,0.288-0.575
					c0.017-0.061,0.038-0.127,0.062-0.197c0.023-0.069,0.041-0.142,0.054-0.219C123.389,306.003,123.39,305.955,123.378,305.935z"/>
			</g>
		</g>
		<g>
			
				<linearGradient id="SVGID_00000115508214516138681790000006070051723605219221_" gradientUnits="userSpaceOnUse" x1="91.6615" y1="203.6917" x2="91.6615" y2="178.8866">
				<stop  offset="0" style="stop-color:#F7E349"/>
				<stop  offset="1" style="stop-color:#A3822E"/>
			</linearGradient>
			
				<path style="fill:url(#SVGID_00000115508214516138681790000006070051723605219221_);stroke:#A3822E;stroke-width:0.3;stroke-miterlimit:10;" d="
				M67.708,203.692c0,0-1.669-12.59-7.599-15.479c0,0,31.02-20.984,63.105,0c0,0-8.465,7.833-8.11,14.409L67.708,203.692z"/>
			<g>
				<path d="M76.32,195.634l-2.136-10.682l3.07-0.615c0.786-0.156,1.45-0.218,1.99-0.183c0.541,0.036,0.973,0.187,1.298,0.453
					c0.323,0.267,0.539,0.667,0.646,1.197c0.071,0.357,0.075,0.698,0.012,1.021s-0.184,0.627-0.365,0.913
					c-0.179,0.286-0.402,0.537-0.667,0.755c-0.266,0.218-0.571,0.412-0.914,0.58c0.33-0.049,0.674-0.06,1.032-0.031
					c0.357,0.029,0.695,0.11,1.013,0.239c0.319,0.13,0.599,0.333,0.837,0.609c0.239,0.275,0.402,0.633,0.49,1.072
					c0.223,1.113-0.071,2.09-0.879,2.932c-0.239,0.239-0.532,0.444-0.881,0.613c-0.347,0.171-0.696,0.302-1.044,0.393
					c-0.349,0.091-0.77,0.186-1.266,0.285L76.32,195.634z M75.678,185.257l0.829,4.143l0.642-0.128
					c0.413-0.083,0.767-0.176,1.061-0.281s0.576-0.251,0.845-0.444c0.346-0.261,0.591-0.575,0.734-0.944
					c0.143-0.368,0.172-0.767,0.087-1.195c-0.095-0.476-0.275-0.835-0.541-1.079c-0.267-0.245-0.605-0.385-1.014-0.422
					c-0.41-0.037-0.906,0.001-1.487,0.118L75.678,185.257z M76.623,189.982l0.958,4.794l1.489-0.298
					c0.517-0.103,0.954-0.298,1.311-0.585c0.358-0.286,0.611-0.637,0.759-1.054c0.147-0.417,0.175-0.855,0.083-1.315
					c-0.172-0.869-0.577-1.423-1.214-1.665c-0.636-0.241-1.474-0.258-2.513-0.051L76.623,189.982z"/>
				<path d="M90.386,188.78l0.198,3.705c0.011,0.208,0.025,0.362,0.044,0.462c0.019,0.102,0.06,0.18,0.126,0.241
					c0.065,0.059,0.166,0.084,0.302,0.078c0.114-0.007,0.269-0.037,0.464-0.095l0.019,0.35c-0.178,0.094-0.335,0.156-0.474,0.19
					c-0.17,0.04-0.338,0.065-0.505,0.074c-0.317,0.007-0.58-0.059-0.789-0.196c-0.207-0.138-0.342-0.377-0.401-0.718l-0.134,0.156
					c-0.635,0.706-1.405,1.083-2.308,1.131c-0.583,0.032-1.093-0.124-1.53-0.465c-0.438-0.342-0.672-0.799-0.703-1.371
					c-0.029-0.561,0.08-1.005,0.331-1.331c0.251-0.326,0.569-0.56,0.953-0.703c0.384-0.143,0.899-0.285,1.549-0.424
					c0.494-0.11,0.847-0.2,1.057-0.274c0.21-0.075,0.362-0.176,0.456-0.306c0.095-0.131,0.136-0.323,0.123-0.577
					c-0.032-0.599-0.219-1.05-0.561-1.359c-0.342-0.307-0.81-0.445-1.402-0.413c-0.349,0.017-0.658,0.096-0.926,0.237
					c-0.269,0.139-0.48,0.298-0.632,0.476c-0.152,0.176-0.247,0.339-0.286,0.488l-0.18,0.009l-0.047-0.889
					c0.827-0.633,1.669-0.973,2.527-1.018c0.846-0.045,1.502,0.144,1.965,0.568C90.084,187.227,90.339,187.886,90.386,188.78z
					 M89.289,192.248l-0.124-2.331l-0.555,0.146c-0.351,0.082-0.672,0.163-0.965,0.243c-0.293,0.082-0.567,0.186-0.821,0.314
					c-0.254,0.128-0.46,0.309-0.62,0.541c-0.159,0.233-0.23,0.52-0.212,0.863c0.027,0.498,0.183,0.867,0.469,1.105
					c0.287,0.238,0.68,0.343,1.179,0.317c0.198-0.011,0.418-0.086,0.66-0.223c0.243-0.138,0.438-0.289,0.587-0.453
					c0.048-0.055,0.103-0.112,0.163-0.174c0.059-0.06,0.114-0.127,0.164-0.2C89.265,192.325,89.29,192.275,89.289,192.248z"/>
				<path d="M92.91,193.817l0.607-7.621c0.134,0.021,0.255,0.041,0.364,0.06s0.198,0.032,0.271,0.037
					c0.067,0.005,0.155,0.007,0.262,0.005c0.107-0.003,0.234-0.003,0.38-0.001l-0.116,1.455c0.67-0.985,1.564-1.434,2.685-1.344
					c0.918,0.074,1.557,0.376,1.914,0.909c0.357,0.532,0.493,1.332,0.408,2.402l-0.368,4.608c-0.103-0.019-0.188-0.033-0.259-0.044
					c-0.069-0.011-0.126-0.02-0.17-0.029c-0.043-0.008-0.112-0.016-0.206-0.024c-0.098-0.008-0.171-0.011-0.218-0.009
					c-0.047,0.001-0.106,0.003-0.176,0.001c-0.071,0-0.154,0.001-0.247,0.004l0.338-4.242c0.043-0.545,0.033-1.013-0.029-1.405
					c-0.063-0.392-0.217-0.711-0.46-0.957c-0.245-0.247-0.6-0.389-1.066-0.426c-0.785-0.063-1.348,0.159-1.695,0.664
					s-0.561,1.292-0.647,2.362l-0.294,3.697c-0.103-0.019-0.19-0.033-0.259-0.044c-0.069-0.011-0.127-0.02-0.174-0.029
					c-0.047-0.008-0.114-0.016-0.202-0.024c-0.099-0.007-0.163-0.011-0.191-0.011c-0.029,0-0.088,0.001-0.176,0.001
					C93.095,193.813,93.004,193.815,92.91,193.817z"/>
				<path d="M105.194,183.198l-1.509,7.008c-0.044,0.208-0.068,0.342-0.069,0.4c-0.003,0.059,0.009,0.102,0.036,0.128
					c0.29,0.061,0.81-0.148,1.558-0.632l1.181-0.775l1.51-1.081c0.13,0.039,0.247,0.075,0.353,0.108
					c0.104,0.033,0.192,0.057,0.263,0.072c0.056,0.012,0.138,0.024,0.245,0.037c0.106,0.012,0.231,0.028,0.377,0.048l-0.025,0.115
					c-0.195,0.112-0.365,0.206-0.512,0.282c-0.147,0.075-0.48,0.25-1,0.527c-0.521,0.277-1.032,0.56-1.533,0.849
					c-0.501,0.289-0.851,0.494-1.048,0.617c0.127,0.225,0.298,0.536,0.513,0.937c0.215,0.401,0.466,0.866,0.754,1.397
					c0.287,0.531,0.551,1.013,0.787,1.447c0.237,0.434,0.469,0.859,0.699,1.276l-0.016,0.078c-0.131-0.039-0.234-0.07-0.313-0.092
					c-0.078-0.021-0.143-0.041-0.198-0.059c-0.056-0.017-0.136-0.036-0.243-0.06c-0.122-0.025-0.202-0.041-0.238-0.047
					c-0.036-0.005-0.108-0.015-0.217-0.031c-0.108-0.015-0.221-0.031-0.334-0.044c-0.167-0.361-0.45-0.909-0.849-1.644
					c-0.398-0.736-0.859-1.576-1.386-2.519c-0.112-0.195-0.215-0.302-0.306-0.322c-0.132-0.028-0.241,0.148-0.322,0.531l-0.687,3.19
					c-0.1-0.032-0.183-0.057-0.251-0.078c-0.067-0.02-0.123-0.037-0.168-0.052c-0.044-0.015-0.111-0.032-0.196-0.051
					c-0.098-0.02-0.159-0.033-0.188-0.036c-0.028-0.004-0.087-0.011-0.175-0.021c-0.088-0.012-0.179-0.021-0.273-0.031l2.529-11.742
					c0.13,0.039,0.247,0.075,0.351,0.108c0.104,0.033,0.192,0.057,0.265,0.072c0.065,0.015,0.152,0.028,0.258,0.04
					C104.924,183.16,105.05,183.178,105.194,183.198z"/>
			</g>
		</g>
		<g>
			
				<linearGradient id="SVGID_00000072958705930514023770000015181196078385117339_" gradientUnits="userSpaceOnUse" x1="91.6615" y1="197.3343" x2="91.6615" y2="303.9283">
				<stop  offset="0" style="stop-color:#F7E349"/>
				<stop  offset="1" style="stop-color:#A3822E"/>
			</linearGradient>
			
				<circle style="fill:url(#SVGID_00000072958705930514023770000015181196078385117339_);stroke:#A3822E;stroke-width:0.3;stroke-miterlimit:10;" cx="91.662" cy="250.631" r="53.297"/>
			<g>
				<g>
					<circle style="fill:#FFFFFF;" cx="92.457" cy="249.001" r="41.158"/>
					<path d="M92.457,291.528c-23.45,0-42.526-19.077-42.526-42.526s19.077-42.526,42.526-42.526s42.526,19.077,42.526,42.526
						S115.906,291.528,92.457,291.528z M92.457,209.212c-21.939,0-39.789,17.85-39.789,39.789s17.85,39.789,39.789,39.789
						s39.789-17.85,39.789-39.789S114.396,209.212,92.457,209.212z"/>
				</g>
				<g>
					<path style="fill:#FF0000;" d="M92.45,212.502c-20.145,0-36.485,16.34-36.485,36.499c0,20.159,16.34,36.499,36.485,36.499
						c20.159,0,36.499-16.34,36.499-36.499C128.949,228.843,112.609,212.502,92.45,212.502z M91.199,270.998h0.936
						c-0.326,0.387-0.534,0.598-0.534,0.598C91.458,271.399,91.334,271.197,91.199,270.998z"/>
				</g>
				<g>
					<path style="fill:#FFFFFF;stroke:#000000;stroke-width:0.5;stroke-miterlimit:10;" d="M119.054,231.623
						c-18.024-6.309-27.371,4.94-27.371,4.94c-14.52-11.934-28.438-3.189-28.438-3.189c4.037,18.626,18.256,20.61,18.256,20.61
						c-4.42,14.438,10.182,26.303,10.182,26.303c12.317-6.993,11.783-26.837,11.783-26.837
						C117.768,248.196,119.054,231.623,119.054,231.623z M91.259,244.747c0.985-1.341,4.106,5.05,3.504,5.652
						c-0.602,0.616-5.816,0.876-6.268-0.342C88.029,248.853,91.259,244.747,91.259,244.747z M83.089,248.278
						c-9.58-2.504-12.166-11.14-12.166-11.14c10.921-1.628,16.765,3.763,16.765,3.763C83.089,243.639,83.089,248.278,83.089,248.278
						z M91.286,270.873c-5.105-6.979-4.543-15.683-4.543-15.683c4.256,1.218,9.675,0,9.675,0
						C97.609,264.536,91.286,270.873,91.286,270.873z M101.222,248.278c-1.095-3.572-5.433-7.719-5.433-7.719
						c7.226-6.049,15.971-4.147,15.971-4.147C108.64,244.474,101.222,248.278,101.222,248.278z"/>
				</g>
			</g>
			<g>
				<path d="M75.796,296.64l0.068,0.031c0.032,0.234,0.113,0.454,0.239,0.657c0.128,0.204,0.288,0.347,0.48,0.433
					c0.142,0.063,0.295,0.09,0.456,0.08c0.163-0.01,0.312-0.057,0.447-0.144c0.137-0.085,0.237-0.202,0.302-0.35
					c0.116-0.261,0.115-0.475-0.003-0.644c-0.118-0.17-0.33-0.382-0.639-0.641s-0.518-0.498-0.628-0.72
					c-0.109-0.22-0.089-0.501,0.062-0.842c0.179-0.402,0.452-0.659,0.821-0.768c0.369-0.11,0.76-0.075,1.171,0.107
					c0.199,0.088,0.381,0.198,0.548,0.328c0.166,0.132,0.279,0.243,0.341,0.334c-0.162,0.145-0.325,0.321-0.486,0.527l-0.077-0.033
					c0.005-0.11-0.012-0.228-0.049-0.355c-0.037-0.126-0.093-0.238-0.165-0.335c-0.073-0.096-0.163-0.169-0.271-0.215
					c-0.226-0.1-0.444-0.12-0.65-0.058c-0.206,0.061-0.36,0.205-0.46,0.432c-0.108,0.246-0.107,0.454,0.007,0.625
					c0.113,0.17,0.318,0.387,0.616,0.653c0.297,0.266,0.504,0.51,0.62,0.736c0.116,0.225,0.104,0.495-0.035,0.81
					c-0.129,0.292-0.318,0.509-0.567,0.65s-0.52,0.208-0.815,0.202c-0.294-0.007-0.571-0.067-0.833-0.182
					c-0.411-0.183-0.734-0.434-0.967-0.758C75.583,296.918,75.737,296.733,75.796,296.64z"/>
				<path d="M83.394,297.11l-0.59,2.127c-0.033,0.119-0.055,0.209-0.063,0.27c-0.009,0.06-0.001,0.113,0.025,0.159
					c0.026,0.045,0.078,0.079,0.156,0.1c0.066,0.018,0.159,0.03,0.28,0.035l-0.056,0.202c-0.118,0.019-0.219,0.024-0.304,0.017
					c-0.104-0.009-0.203-0.027-0.298-0.054c-0.181-0.056-0.317-0.144-0.407-0.26c-0.092-0.117-0.122-0.277-0.092-0.48l-0.104,0.063
					c-0.492,0.277-0.998,0.345-1.518,0.201c-0.334-0.093-0.593-0.277-0.774-0.553c-0.182-0.276-0.229-0.577-0.137-0.906
					c0.089-0.322,0.235-0.552,0.439-0.688c0.204-0.136,0.427-0.209,0.67-0.217c0.243-0.007,0.561,0.011,0.954,0.055
					c0.3,0.032,0.516,0.047,0.648,0.045c0.133-0.002,0.238-0.031,0.315-0.086c0.079-0.056,0.137-0.157,0.179-0.303
					c0.095-0.343,0.075-0.634-0.06-0.872c-0.135-0.238-0.372-0.404-0.712-0.499c-0.2-0.056-0.39-0.069-0.568-0.041
					c-0.178,0.027-0.327,0.077-0.446,0.149c-0.12,0.071-0.204,0.145-0.255,0.22l-0.102-0.028l0.141-0.51
					c0.586-0.201,1.126-0.233,1.619-0.097c0.487,0.135,0.821,0.366,1.002,0.693C83.517,296.177,83.537,296.596,83.394,297.11z
					 M82.118,298.859l0.371-1.339l-0.34-0.023c-0.214-0.02-0.411-0.035-0.591-0.045c-0.18-0.009-0.355-0.002-0.521,0.021
					c-0.168,0.025-0.319,0.087-0.452,0.188c-0.135,0.101-0.228,0.251-0.284,0.448c-0.079,0.286-0.061,0.524,0.056,0.712
					s0.319,0.322,0.605,0.402c0.113,0.032,0.251,0.031,0.414-0.001c0.163-0.032,0.303-0.08,0.417-0.145
					c0.038-0.021,0.079-0.043,0.124-0.067c0.045-0.022,0.09-0.051,0.131-0.082C82.091,298.897,82.114,298.874,82.118,298.859z"/>
				<path d="M84.693,300.447l0.872-7.095c0.079,0.016,0.152,0.032,0.214,0.045c0.064,0.014,0.117,0.025,0.16,0.03
					c0.041,0.005,0.093,0.008,0.156,0.01c0.064,0.001,0.139,0.004,0.227,0.008l-0.423,3.441c0.423-0.569,0.966-0.812,1.631-0.731
					c0.537,0.066,0.907,0.267,1.109,0.602c0.2,0.335,0.263,0.81,0.187,1.425l-0.336,2.731c-0.06-0.014-0.111-0.024-0.153-0.033
					c-0.041-0.009-0.074-0.016-0.1-0.022c-0.026-0.006-0.067-0.013-0.122-0.02c-0.058-0.007-0.101-0.011-0.13-0.011
					c-0.027,0-0.063-0.001-0.104-0.003c-0.042-0.003-0.092-0.003-0.147-0.005l0.309-2.514c0.066-0.547,0.039-0.955-0.084-1.223
					c-0.123-0.268-0.38-0.426-0.77-0.474c-0.825-0.101-1.299,0.352-1.423,1.361l-0.316,2.569c-0.06-0.014-0.111-0.024-0.153-0.033
					c-0.041-0.007-0.075-0.016-0.102-0.022c-0.027-0.007-0.067-0.013-0.12-0.02c-0.058-0.007-0.096-0.01-0.112-0.011
					c-0.017-0.001-0.052-0.002-0.105-0.004C84.803,300.448,84.749,300.448,84.693,300.447z"/>
				<path d="M93.662,297.947l0.031,2.207c0.002,0.124,0.007,0.216,0.016,0.276c0.008,0.061,0.031,0.109,0.069,0.146
					c0.039,0.037,0.098,0.054,0.178,0.053c0.068,0,0.16-0.016,0.278-0.045l0.004,0.208c-0.108,0.051-0.203,0.086-0.287,0.102
					c-0.102,0.02-0.203,0.031-0.302,0.033c-0.188-0.003-0.343-0.049-0.465-0.136c-0.12-0.086-0.194-0.232-0.222-0.436l-0.082,0.09
					c-0.394,0.404-0.861,0.611-1.399,0.619c-0.347,0.005-0.647-0.099-0.899-0.313c-0.253-0.212-0.382-0.49-0.386-0.83
					c-0.005-0.335,0.07-0.597,0.227-0.784c0.157-0.189,0.351-0.32,0.583-0.397c0.232-0.076,0.541-0.147,0.932-0.216
					c0.297-0.053,0.508-0.1,0.634-0.139c0.126-0.038,0.22-0.096,0.279-0.171c0.059-0.075,0.088-0.188,0.085-0.341
					c-0.005-0.356-0.106-0.629-0.302-0.82c-0.196-0.191-0.471-0.284-0.825-0.278c-0.207,0.002-0.392,0.043-0.555,0.119
					s-0.293,0.166-0.386,0.268c-0.095,0.102-0.156,0.196-0.182,0.283l-0.107,0.002l-0.007-0.53c0.506-0.358,1.015-0.539,1.526-0.547
					c0.505-0.007,0.89,0.12,1.156,0.383C93.517,297.016,93.654,297.413,93.662,297.947z M92.929,299.984l-0.019-1.391l-0.335,0.075
					c-0.21,0.041-0.403,0.081-0.579,0.122c-0.176,0.04-0.34,0.097-0.495,0.167c-0.153,0.071-0.281,0.174-0.381,0.308
					c-0.1,0.135-0.148,0.304-0.146,0.509c0.005,0.296,0.089,0.52,0.253,0.667c0.165,0.148,0.396,0.219,0.694,0.216
					c0.118-0.003,0.25-0.041,0.398-0.118c0.147-0.076,0.267-0.162,0.359-0.256c0.031-0.031,0.064-0.065,0.101-0.1
					c0.037-0.035,0.07-0.072,0.103-0.115C92.914,300.028,92.93,299.999,92.929,299.984z"/>
				<path d="M95.629,300.802l-0.992-7.05c0.081-0.005,0.154-0.009,0.219-0.012c0.066-0.003,0.119-0.007,0.163-0.014
					c0.04-0.006,0.091-0.016,0.152-0.031c0.062-0.015,0.136-0.032,0.221-0.05l0.49,3.489c0.163-0.336,0.366-0.607,0.608-0.816
					c0.243-0.208,0.539-0.336,0.885-0.384c0.421-0.059,0.789-0.004,1.106,0.165c0.316,0.17,0.566,0.413,0.752,0.73
					c0.185,0.317,0.303,0.657,0.354,1.023c0.046,0.321,0.041,0.635-0.013,0.941c-0.054,0.305-0.156,0.584-0.306,0.84
					c-0.15,0.256-0.349,0.47-0.595,0.643c-0.247,0.172-0.537,0.282-0.872,0.329c-0.592,0.083-1.07-0.078-1.433-0.483
					c-0.065,0.065-0.145,0.153-0.238,0.265c-0.091,0.111-0.2,0.242-0.322,0.391L95.629,300.802z M97.195,296.363
					c-0.497,0.07-0.826,0.332-0.99,0.784c-0.163,0.454-0.199,0.996-0.111,1.628c0.047,0.331,0.141,0.622,0.284,0.87
					c0.142,0.249,0.324,0.432,0.544,0.55c0.221,0.117,0.465,0.157,0.735,0.119c0.252-0.036,0.459-0.131,0.624-0.287
					s0.287-0.351,0.369-0.583c0.082-0.232,0.13-0.467,0.145-0.707c0.015-0.24,0.005-0.485-0.031-0.733
					c-0.05-0.356-0.141-0.663-0.273-0.922c-0.131-0.258-0.305-0.452-0.52-0.584C97.756,296.369,97.497,296.324,97.195,296.363z"/>
				<path d="M103.759,296.171l0.554,2.137c0.031,0.12,0.058,0.209,0.081,0.265c0.023,0.057,0.057,0.097,0.102,0.125
					c0.045,0.026,0.107,0.029,0.186,0.009c0.065-0.018,0.152-0.054,0.259-0.111l0.052,0.202c-0.092,0.075-0.176,0.131-0.254,0.167
					c-0.094,0.044-0.188,0.078-0.285,0.103c-0.185,0.041-0.346,0.035-0.483-0.021c-0.138-0.055-0.245-0.179-0.32-0.371l-0.059,0.106
					c-0.287,0.487-0.69,0.798-1.213,0.934c-0.336,0.088-0.651,0.058-0.947-0.09c-0.297-0.147-0.487-0.386-0.573-0.716
					c-0.083-0.324-0.072-0.596,0.036-0.816c0.107-0.22,0.265-0.395,0.471-0.524c0.207-0.129,0.492-0.271,0.854-0.43
					c0.275-0.122,0.47-0.217,0.584-0.286c0.114-0.067,0.19-0.145,0.23-0.232c0.039-0.087,0.04-0.205,0.002-0.351
					c-0.09-0.345-0.252-0.587-0.489-0.725c-0.236-0.139-0.524-0.164-0.867-0.075c-0.201,0.052-0.371,0.134-0.512,0.247
					c-0.14,0.113-0.244,0.231-0.312,0.352c-0.067,0.122-0.104,0.227-0.109,0.319l-0.104,0.027l-0.133-0.512
					c0.407-0.467,0.858-0.765,1.353-0.893c0.489-0.128,0.893-0.094,1.215,0.098C103.399,295.301,103.626,295.656,103.759,296.171z
					 M103.53,298.323l-0.349-1.345l-0.306,0.152c-0.195,0.088-0.372,0.175-0.534,0.256c-0.161,0.082-0.309,0.175-0.441,0.279
					c-0.133,0.105-0.232,0.235-0.297,0.39c-0.065,0.154-0.073,0.33-0.021,0.529c0.074,0.287,0.21,0.484,0.405,0.589
					c0.195,0.104,0.437,0.119,0.724,0.045c0.114-0.03,0.234-0.099,0.359-0.208c0.126-0.109,0.221-0.22,0.288-0.333
					c0.022-0.038,0.047-0.078,0.074-0.12c0.027-0.043,0.052-0.088,0.074-0.137C103.525,298.37,103.534,298.338,103.53,298.323z"/>
				<path d="M104.45,293.333l0.626-0.524l0.4,1.169l0.954-0.327c0.018,0.092,0.034,0.155,0.044,0.187
					c0.017,0.049,0.042,0.102,0.073,0.156l-0.954,0.327l0.772,2.261l0.112,0.325c0.118,0.343,0.255,0.603,0.415,0.78
					c0.158,0.176,0.373,0.219,0.642,0.126c0.059-0.021,0.186-0.087,0.383-0.2l0.074,0.216c-0.262,0.21-0.496,0.352-0.701,0.421
					c-0.167,0.057-0.32,0.087-0.461,0.087c-0.14,0.001-0.274-0.038-0.401-0.116c-0.127-0.078-0.244-0.202-0.356-0.372
					c-0.11-0.171-0.211-0.39-0.305-0.66l-0.896-2.62l-0.558,0.191c0-0.046-0.012-0.106-0.037-0.18
					c-0.027-0.079-0.054-0.133-0.082-0.164l0.559-0.191L104.45,293.333z"/>
			</g>
		</g>
		<path style="fill:none;stroke:#A3822E;stroke-width:0.1;stroke-miterlimit:10;" d="M132.246,292.809
			c0.515,0.132,4.628-0.575,10.53-3.645c1.864-0.969,3.906-2.175,6.069-3.663"/>
		<path style="fill:none;stroke:#A3822E;stroke-width:0.1;stroke-miterlimit:10;" d="M142.503,279.449
			c0,0,7.907-5.018,11.328-11.252"/>
		<path style="fill:none;stroke:#A3822E;stroke-width:0.1;stroke-miterlimit:10;" d="M145.263,265.307
			c0,0,8.124-5.023,12.034-14.676"/>
		<path style="fill:none;stroke:#A3822E;stroke-width:0.1;stroke-miterlimit:10;" d="M146.536,249.001c0,0,5.698-4.982,7.295-15.322
			"/>
		
			<line style="fill:none;stroke:#A3822E;stroke-width:0.1;stroke-miterlimit:10;" x1="140.476" y1="222.521" x2="144.023" y2="209.723"/>
	</g>
</g>
</svg>
